<?xml version="1.0" encoding="UTF-8" standalone="no"?>
<!-- Created with Inkscape (http://www.inkscape.org/) -->

<svg
   width="315.57126mm"
   height="597.89331mm"
   viewBox="0 0 315.57125 597.89338"
   version="1.1"
   id="svg1"
   xml:space="preserve"
   inkscape:version="1.4 (e7c3feb, 2024-10-09)"
   sodipodi:docname="maquina-escribir-21-HOLA-esquema.svg"
   xmlns:inkscape="http://www.inkscape.org/namespaces/inkscape"
   xmlns:sodipodi="http://sodipodi.sourceforge.net/DTD/sodipodi-0.dtd"
   xmlns="http://www.w3.org/2000/svg"
   xmlns:svg="http://www.w3.org/2000/svg"><sodipodi:namedview
     id="namedview1"
     pagecolor="#ffffff"
     bordercolor="#000000"
     borderopacity="0.25"
     inkscape:showpageshadow="2"
     inkscape:pageopacity="0.0"
     inkscape:pagecheckerboard="0"
     inkscape:deskcolor="#d1d1d1"
     inkscape:document-units="mm"
     inkscape:zoom="0.94744824"
     inkscape:cx="715.07864"
     inkscape:cy="1172.0957"
     inkscape:window-width="1866"
     inkscape:window-height="1011"
     inkscape:window-x="0"
     inkscape:window-y="0"
     inkscape:window-maximized="1"
     inkscape:current-layer="layer1"
     showgrid="false"
     showguides="true" /><defs
     id="defs1"><marker
       style="overflow:visible"
       id="Triangle"
       refX="0"
       refY="0"
       orient="auto-start-reverse"
       inkscape:stockid="Triangle arrow"
       markerWidth="1"
       markerHeight="1"
       viewBox="0 0 1 1"
       inkscape:isstock="true"
       inkscape:collect="always"
       preserveAspectRatio="xMidYMid"><path
         transform="scale(0.5)"
         style="fill:context-stroke;fill-rule:evenodd;stroke:context-stroke;stroke-width:1pt"
         d="M 5.77,0 -2.88,5 V -5 Z"
         id="path135" /></marker></defs><g
     inkscape:groupmode="layer"
     id="layer5"
     inkscape:label="Back"
     transform="matrix(1.2962851,0,0,1.105548,82.338744,-53.314701)"
     style="display:inline;stroke-width:0.94763"><rect
       style="display:inline;fill:#ffffff;stroke:none;stroke-width:1.29316;stroke-linejoin:round;stroke-dasharray:none"
       id="rect2"
       width="243.44279"
       height="540.81171"
       x="-63.949867"
       y="47.972084" /><text
       xml:space="preserve"
       style="font-weight:bold;font-size:10.4032px;line-height:0.9;font-family:Ubuntu;-inkscape-font-specification:'Ubuntu Bold';text-align:center;writing-mode:lr-tb;direction:ltr;text-anchor:middle;display:inline;fill:#000000;stroke:none;stroke-width:0.884061;stroke-linejoin:round"
       x="115.13455"
       y="60.18552"
       id="text2"
       transform="scale(0.92350351,1.0828329)"><tspan
         sodipodi:role="line"
         style="fill:#000000;stroke:none;stroke-width:0.884061"
         x="115.13455"
         y="60.18552"
         id="tspan2">Papel en carro</tspan></text><path
       style="display:inline;fill:#000000;stroke:#000000;stroke-width:0.884061;stroke-linejoin:round;stroke-dasharray:none;marker-end:url(#Triangle)"
       d="M 79.527342,69.746476 77.085003,87.451704"
       id="path6-2"
       sodipodi:nodetypes="cc" /><text
       xml:space="preserve"
       style="font-weight:bold;font-size:10.4032px;line-height:0.9;font-family:Ubuntu;-inkscape-font-specification:'Ubuntu Bold';text-align:center;writing-mode:lr-tb;direction:ltr;text-anchor:middle;display:inline;fill:#000000;stroke:none;stroke-width:0.884061;stroke-linejoin:round"
       x="1.3188971"
       y="98.783875"
       id="text19"
       transform="scale(0.92350352,1.0828329)"><tspan
         sodipodi:role="line"
         style="fill:#000000;stroke:none;stroke-width:0.884061"
         x="1.3188971"
         y="98.783875"
         id="tspan19">Cursor</tspan></text><path
       style="display:inline;fill:#000000;stroke:#000000;stroke-width:0.884061;stroke-linejoin:round;stroke-dasharray:none;marker-end:url(#Triangle)"
       d="m 20.117818,102.9686 17.6655,13.06127"
       id="path19"
       sodipodi:nodetypes="cc" /></g><g
     inkscape:label="Fotograma-1"
     inkscape:groupmode="layer"
     id="layer1"
     transform="translate(74.703103,-48.23837)"
     style="display:inline"><rect
       style="fill:none;stroke:#000000;stroke-width:0.79375;stroke-linejoin:round;stroke-dasharray:none"
       id="rect7"
       width="173.07872"
       height="49.90464"
       x="21.53964"
       y="203.19565" /><path
       style="font-size:37.4792px;line-height:0.9;font-family:'Latin Modern Mono';-inkscape-font-specification:'Latin Modern Mono';fill:#000080;stroke:#000000;stroke-width:0.341;stroke-linejoin:round"
       d="m 61.287351,247.76158 c 0,-1.16186 -0.899501,-1.16186 -1.499168,-1.16186 h -0.93698 V 228.2724 h 0.93698 c 0.562188,0 1.499168,0 1.499168,-1.12438 0,-1.16185 -0.899501,-1.16185 -1.499168,-1.16185 h -4.460024 c -0.562188,0 -1.499168,0 -1.499168,1.12437 0,1.16186 0.8995,1.16186 1.499168,1.16186 h 0.93698 v 7.57079 h -7.94559 v -7.57079 h 0.936979 c 0.562188,0 1.499168,0 1.499168,-1.12438 0,-1.16185 -0.8995,-1.16185 -1.499168,-1.16185 h -4.460024 c -0.599667,0 -1.499168,0 -1.499168,1.16185 0,1.12438 0.93698,1.12438 1.499168,1.12438 h 0.93698 v 18.32732 h -0.93698 c -0.599667,0 -1.499168,0 -1.499168,1.16186 0,1.12438 0.93698,1.12438 1.499168,1.12438 h 4.460024 c 0.562188,0 1.499168,0 1.499168,-1.12438 0,-1.16186 -0.8995,-1.16186 -1.499168,-1.16186 h -0.936979 v -8.47029 h 7.94559 v 8.47029 h -0.93698 c -0.562188,0 -1.499168,0 -1.499168,1.12438 0,1.16186 0.8995,1.16186 1.499168,1.16186 h 4.460024 c 0.562188,0 1.499168,0 1.499168,-1.12438 z"
       id="text8"
       transform="scale(1.0091993,0.99088455)"
       aria-label="H" /><rect
       style="fill:none;stroke:#000000;stroke-width:0.79375;stroke-linejoin:round;stroke-dasharray:none"
       id="rect10"
       width="173.07872"
       height="49.90464"
       x="41.432446"
       y="141.20018" /><path
       d="m 80.798518,185.1958 c 0,-1.16186 -0.899501,-1.16186 -1.499168,-1.16186 h -0.93698 v -18.32732 h 0.93698 c 0.562188,0 1.499168,0 1.499168,-1.12438 0,-1.16186 -0.899501,-1.16186 -1.499168,-1.16186 h -4.460025 c -0.562188,0 -1.499168,0 -1.499168,1.12438 0,1.16186 0.899501,1.16186 1.499168,1.16186 h 0.93698 v 7.57079 h -7.94559 v -7.57079 h 0.93698 c 0.562188,0 1.499168,0 1.499168,-1.12438 0,-1.16186 -0.899501,-1.16186 -1.499168,-1.16186 h -4.460024 c -0.599668,0 -1.499168,0 -1.499168,1.16186 0,1.12438 0.93698,1.12438 1.499168,1.12438 h 0.93698 v 18.32732 h -0.93698 c -0.599668,0 -1.499168,0 -1.499168,1.16186 0,1.12438 0.93698,1.12438 1.499168,1.12438 h 4.460024 c 0.562188,0 1.499168,0 1.499168,-1.12438 0,-1.16186 -0.899501,-1.16186 -1.499168,-1.16186 h -0.93698 v -8.47029 h 7.94559 v 8.47029 h -0.93698 c -0.562188,0 -1.499168,0 -1.499168,1.12438 0,1.16186 0.899501,1.16186 1.499168,1.16186 h 4.460025 c 0.562188,0 1.499168,0 1.499168,-1.12438 z"
       id="text10"
       style="font-size:37.4792px;line-height:0.9;font-family:'Latin Modern Mono';-inkscape-font-specification:'Latin Modern Mono';text-align:center;text-anchor:middle;fill:#000080;stroke:#000000;stroke-width:0.341;stroke-linejoin:round"
       transform="scale(1.0091993,0.99088455)"
       aria-label="H" /><rect
       style="fill:none;stroke:#000000;stroke-width:0.79375;stroke-linejoin:round;stroke-dasharray:none"
       id="rect11"
       width="173.07872"
       height="49.90464"
       x="1.8518895"
       y="390.94299" /><text
       xml:space="preserve"
       style="font-style:normal;font-variant:normal;font-weight:normal;font-stretch:normal;font-size:37.4792px;line-height:0.9;font-family:'Latin Modern Mono';-inkscape-font-specification:'Latin Modern Mono';text-align:center;writing-mode:lr-tb;direction:ltr;text-anchor:middle;fill:#000080;stroke:#000000;stroke-width:0.341;stroke-linejoin:round"
       x="22.687792"
       y="438.36047"
       id="text11"
       transform="scale(1.0091993,0.99088455)"><tspan
         sodipodi:role="line"
         id="tspan11"
         style="font-style:normal;font-variant:normal;font-weight:normal;font-stretch:normal;font-family:'Latin Modern Mono';-inkscape-font-specification:'Latin Modern Mono';text-align:start;text-anchor:start;fill:#000080;stroke-width:0.341"
         x="22.687792"
         y="438.36047">HOL</tspan></text><rect
       style="fill:none;stroke:#000000;stroke-width:0.79375;stroke-linejoin:round;stroke-dasharray:none"
       id="rect12"
       width="173.07872"
       height="49.90464"
       x="-17.835859"
       y="452.44772" /><text
       xml:space="preserve"
       style="font-style:normal;font-variant:normal;font-weight:normal;font-stretch:normal;font-size:37.4792px;line-height:0.9;font-family:'Latin Modern Mono';-inkscape-font-specification:'Latin Modern Mono';text-align:center;writing-mode:lr-tb;direction:ltr;text-anchor:middle;fill:#000080;stroke:#000000;stroke-width:0.341;stroke-linejoin:round"
       x="2.9038389"
       y="500.43091"
       id="text12"
       transform="scale(1.0091993,0.99088455)"><tspan
         sodipodi:role="line"
         id="tspan12"
         style="font-style:normal;font-variant:normal;font-weight:normal;font-stretch:normal;font-family:'Latin Modern Mono';-inkscape-font-specification:'Latin Modern Mono';text-align:start;text-anchor:start;fill:#000080;stroke-width:0.341"
         x="2.9038389"
         y="500.43091">HOL</tspan></text><rect
       style="fill:none;stroke:#000000;stroke-width:0.79375;stroke-linejoin:round;stroke-dasharray:none"
       id="rect13"
       width="173.07872"
       height="49.90464"
       x="41.432446"
       y="80.380699" /><rect
       style="fill:none;stroke:#000000;stroke-width:0.79375;stroke-linejoin:round;stroke-dasharray:none"
       id="rect14"
       width="173.07872"
       height="49.90464"
       x="21.53964"
       y="268.35938" /><path
       style="font-size:37.4792px;line-height:0.9;font-family:'Latin Modern Mono';-inkscape-font-specification:'Latin Modern Mono';fill:#000080;stroke:#000000;stroke-width:0.341;stroke-linejoin:round"
       d="m 61.287351,313.52476 c 0,-1.16185 -0.899501,-1.16185 -1.499168,-1.16185 h -0.93698 v -18.32733 h 0.93698 c 0.562188,0 1.499168,0 1.499168,-1.12438 0,-1.16185 -0.899501,-1.16185 -1.499168,-1.16185 h -4.460024 c -0.562188,0 -1.499168,0 -1.499168,1.12438 0,1.16185 0.8995,1.16185 1.499168,1.16185 h 0.93698 v 7.5708 h -7.94559 v -7.5708 h 0.936979 c 0.562188,0 1.499168,0 1.499168,-1.12438 0,-1.16185 -0.8995,-1.16185 -1.499168,-1.16185 h -4.460024 c -0.599667,0 -1.499168,0 -1.499168,1.16185 0,1.12438 0.93698,1.12438 1.499168,1.12438 h 0.93698 v 18.32733 h -0.93698 c -0.599667,0 -1.499168,0 -1.499168,1.16185 0,1.12438 0.93698,1.12438 1.499168,1.12438 h 4.460024 c 0.562188,0 1.499168,0 1.499168,-1.12438 0,-1.16185 -0.8995,-1.16185 -1.499168,-1.16185 h -0.936979 v -8.4703 h 7.94559 v 8.4703 h -0.93698 c -0.562188,0 -1.499168,0 -1.499168,1.12437 0,1.16186 0.8995,1.16186 1.499168,1.16186 h 4.460024 c 0.562188,0 1.499168,0 1.499168,-1.12438 z m 18.402273,-10.30678 c 0,-10.83148 -0.787064,-11.8809 -7.720715,-11.8809 -6.933652,0 -7.720715,1.01194 -7.720715,11.8809 0,10.83149 0.787063,11.84343 7.720715,11.84343 6.896172,0 7.720715,-1.01194 7.720715,-11.84343 z m -2.586065,-0.33731 c 0,2.32371 0,4.98473 -0.412271,7.00861 -0.412271,2.09884 -1.386731,2.8859 -4.722379,2.8859 -3.29817,0 -4.23515,-0.78706 -4.6849,-2.66102 -0.44975,-1.91144 -0.44975,-5.17213 -0.44975,-7.23349 0,-2.32371 0,-4.87229 0.412271,-6.59634 0.487229,-2.21127 1.649084,-2.66102 4.722379,-2.66102 2.81094,0 4.122712,0.33731 4.6849,2.39867 0.44975,1.76152 0.44975,4.57246 0.44975,6.85869 z"
       id="text14"
       transform="scale(1.0091993,0.99088455)"
       aria-label="HO" /><rect
       style="fill:none;stroke:#000000;stroke-width:0.79375;stroke-linejoin:round;stroke-dasharray:none"
       id="rect15"
       width="173.07872"
       height="49.90464"
       x="1.8518895"
       y="330.1235" /><path
       style="font-size:37.4792px;line-height:0.9;font-family:'Latin Modern Mono';-inkscape-font-specification:'Latin Modern Mono';fill:#000080;stroke:#000000;stroke-width:0.341;stroke-linejoin:round"
       d="m 41.502349,375.8571 c 0,-1.16186 -0.8995,-1.16186 -1.499167,-1.16186 h -0.93698 v -18.32732 h 0.93698 c 0.562187,0 1.499167,0 1.499167,-1.12438 0,-1.16185 -0.8995,-1.16185 -1.499167,-1.16185 h -4.460025 c -0.562188,0 -1.499168,0 -1.499168,1.12437 0,1.16186 0.899501,1.16186 1.499168,1.16186 h 0.93698 v 7.57079 h -7.94559 v -7.57079 h 0.93698 c 0.562188,0 1.499168,0 1.499168,-1.12438 0,-1.16185 -0.899501,-1.16185 -1.499168,-1.16185 h -4.460025 c -0.599667,0 -1.499168,0 -1.499168,1.16185 0,1.12438 0.93698,1.12438 1.499168,1.12438 h 0.93698 v 18.32732 h -0.93698 c -0.599667,0 -1.499168,0 -1.499168,1.16186 0,1.12438 0.93698,1.12438 1.499168,1.12438 h 4.460025 c 0.562188,0 1.499168,0 1.499168,-1.12438 0,-1.16186 -0.899501,-1.16186 -1.499168,-1.16186 h -0.93698 v -8.47029 h 7.94559 v 8.47029 h -0.93698 c -0.562188,0 -1.499168,0 -1.499168,1.12438 0,1.16186 0.899501,1.16186 1.499168,1.16186 h 4.460025 c 0.562187,0 1.499167,0 1.499167,-1.12438 z m 18.402273,-10.30678 c 0,-10.83149 -0.787063,-11.88091 -7.720715,-11.88091 -6.933652,0 -7.720715,1.01194 -7.720715,11.88091 0,10.83149 0.787063,11.84343 7.720715,11.84343 6.896173,0 7.720715,-1.01194 7.720715,-11.84343 z m -2.586065,-0.33731 c 0,2.32371 0,4.98473 -0.412271,7.00861 -0.412271,2.09883 -1.38673,2.8859 -4.722379,2.8859 -3.298169,0 -4.235149,-0.78707 -4.6849,-2.66103 -0.44975,-1.91144 -0.44975,-5.17213 -0.44975,-7.23348 0,-2.32371 0,-4.8723 0.412271,-6.59634 0.48723,-2.21127 1.649085,-2.66102 4.722379,-2.66102 2.81094,0 4.122712,0.33731 4.6849,2.39866 0.44975,1.76153 0.44975,4.57247 0.44975,6.8587 z"
       id="text15"
       aria-label="HO"
       transform="scale(1.0091993,0.99088455)" /><text
       xml:space="preserve"
       style="font-style:normal;font-variant:normal;font-weight:normal;font-stretch:normal;font-size:37.4792px;line-height:0.9;font-family:'Latin Modern Mono';-inkscape-font-specification:'Latin Modern Mono';text-align:center;writing-mode:lr-tb;direction:ltr;text-anchor:middle;fill:#000080;stroke:#000000;stroke-width:0.341;stroke-linejoin:round"
       x="42.298325"
       y="561.41132"
       id="text16"
       transform="scale(1.0091993,0.99088455)"><tspan
         sodipodi:role="line"
         id="tspan16"
         style="font-style:normal;font-variant:normal;font-weight:normal;font-stretch:normal;font-family:'Latin Modern Mono';-inkscape-font-specification:'Latin Modern Mono';fill:#000080;stroke-width:0.341"
         x="42.298325"
         y="561.41132">HOLA</tspan></text><rect
       style="fill:none;stroke:#000000;stroke-width:0.79375;stroke-linejoin:round;stroke-dasharray:none"
       id="rect17"
       width="173.07872"
       height="49.90464"
       x="-37.694107"
       y="570.92719" /><text
       xml:space="preserve"
       style="font-style:normal;font-variant:normal;font-weight:normal;font-stretch:normal;font-size:37.4792px;line-height:0.9;font-family:'Latin Modern Mono';-inkscape-font-specification:'Latin Modern Mono';text-align:center;writing-mode:lr-tb;direction:ltr;text-anchor:middle;fill:#000080;stroke:#000000;stroke-width:0.341;stroke-linejoin:round"
       x="21.949076"
       y="620.00037"
       id="text17"
       transform="scale(1.0091993,0.99088455)"><tspan
         sodipodi:role="line"
         id="tspan17"
         style="font-style:normal;font-variant:normal;font-weight:normal;font-stretch:normal;font-family:'Latin Modern Mono';-inkscape-font-specification:'Latin Modern Mono';fill:#000080;stroke-width:0.341"
         x="21.949076"
         y="620.00037">HOLA</tspan></text><path
       id="path13"
       style="fill:#808080;stroke:#000000;stroke-width:0.341;stroke-linejoin:round"
       d="m 61.944709,106.58958 v 28.82977 h 1.736296 17.495077 1.735948 v -28.82977 h -1.735948 v 21.5775 H 63.681005 v -21.5775 z" /><path
       id="path10"
       style="fill:#808080;stroke:#000000;stroke-width:0.341;stroke-linejoin:round"
       d="m 61.944709,167.40906 v 28.82977 h 1.736296 17.495077 1.735948 v -28.82977 h -1.735948 v 21.5775 H 63.681005 v -21.5775 z" /><path
       id="path6"
       style="fill:#808080;stroke:#000000;stroke-width:0.341;stroke-linejoin:round"
       d="m 61.944709,229.40453 v 28.82977 h 1.736296 17.495077 1.735948 v -28.82977 h -1.735948 v 21.5775 H 63.681005 v -21.5775 z" /><path
       id="path14"
       style="fill:#808080;stroke:#000000;stroke-width:0.341;stroke-linejoin:round"
       d="m 61.944709,294.56826 v 28.82977 h 1.736296 17.495077 1.735948 v -28.82977 h -1.735948 v 21.5775 H 63.681005 v -21.5775 z" /><path
       id="path15"
       style="fill:#808080;stroke:#000000;stroke-width:0.341;stroke-linejoin:round"
       d="m 61.944709,356.33239 v 28.82977 h 1.736296 17.495077 1.735948 v -28.82977 h -1.735948 v 21.5775 H 63.681005 v -21.5775 z" /><path
       id="path11"
       style="fill:#808080;stroke:#000000;stroke-width:0.341;stroke-linejoin:round"
       d="m 61.944709,417.15187 v 28.82977 h 1.736296 17.495077 1.735948 v -28.82977 h -1.735948 v 21.5775 H 63.681005 v -21.5775 z" /><path
       id="path12"
       style="fill:#808080;stroke:#000000;stroke-width:0.341;stroke-linejoin:round"
       d="m 61.944709,478.65659 v 28.82977 h 1.736296 17.495077 1.735948 v -28.82977 h -1.735948 v 21.5775 H 63.681005 v -21.5775 z" /><rect
       style="fill:none;stroke:#000000;stroke-width:0.79375;stroke-linejoin:round;stroke-dasharray:none"
       id="rect16"
       width="173.07872"
       height="49.90464"
       x="-18.006359"
       y="512.87225" /><path
       id="path16"
       style="fill:#808080;stroke:#000000;stroke-width:0.341;stroke-linejoin:round"
       d="m 61.944709,539.08114 v 28.82977 h 1.736296 17.495077 1.735948 v -28.82977 h -1.735948 v 21.5775 H 63.681005 v -21.5775 z" /><path
       id="path17"
       style="fill:#808080;stroke:#000000;stroke-width:0.341;stroke-linejoin:round"
       d="m 61.944709,597.1361 v 28.82977 h 1.736296 17.495077 1.735948 V 597.1361 h -1.735948 v 21.5775 H 63.681005 v -21.5775 z" /></g></svg>
