<?xml version="1.0" encoding="UTF-8" standalone="no"?>
<!-- Created with Inkscape (http://www.inkscape.org/) -->

<svg
   width="315.57126mm"
   height="114.74783mm"
   viewBox="0 0 315.57125 114.74784"
   version="1.1"
   id="svg1"
   xml:space="preserve"
   inkscape:version="1.4 (e7c3feb, 2024-10-09)"
   sodipodi:docname="maquina-escribir-22-HOLA-esquema-anim.svg"
   xmlns:inkscape="http://www.inkscape.org/namespaces/inkscape"
   xmlns:sodipodi="http://sodipodi.sourceforge.net/DTD/sodipodi-0.dtd"
   xmlns="http://www.w3.org/2000/svg"
   xmlns:svg="http://www.w3.org/2000/svg"><sodipodi:namedview
     id="namedview1"
     pagecolor="#ffffff"
     bordercolor="#000000"
     borderopacity="0.25"
     inkscape:showpageshadow="2"
     inkscape:pageopacity="0.0"
     inkscape:pagecheckerboard="0"
     inkscape:deskcolor="#d1d1d1"
     inkscape:document-units="mm"
     inkscape:zoom="0.66994708"
     inkscape:cx="557.50672"
     inkscape:cy="344.05703"
     inkscape:window-width="1866"
     inkscape:window-height="1011"
     inkscape:window-x="0"
     inkscape:window-y="0"
     inkscape:window-maximized="1"
     inkscape:current-layer="layer18"
     showgrid="false"
     showguides="true" /><defs
     id="defs1" /><g
     inkscape:groupmode="layer"
     id="layer5"
     inkscape:label="Back"
     transform="matrix(1.2962851,0,0,1.105548,82.89726,-53.035442)"
     style="display:inline;stroke-width:0.94763"><rect
       style="display:inline;fill:#cccccc;stroke:none;stroke-width:1.29316;stroke-linejoin:round;stroke-dasharray:none"
       id="rect2"
       width="243.44279"
       height="103.79271"
       x="-63.949867"
       y="47.972084" /></g><g
     inkscape:label="Fotograma-1"
     inkscape:groupmode="layer"
     id="layer1"
     transform="translate(75.261619,-47.959111)"
     style="display:none"
     sodipodi:insensitive="true"><rect
       style="fill:#ffffff;stroke:#000000;stroke-width:0.79375;stroke-linejoin:round;stroke-dasharray:none"
       id="rect13"
       width="173.07872"
       height="49.90464"
       x="41.432446"
       y="80.380699" /><path
       id="path13"
       style="fill:#808080;stroke:#000000;stroke-width:0.341;stroke-linejoin:round"
       d="m 61.944709,106.58958 v 28.82977 h 1.736296 17.495077 1.735948 v -28.82977 h -1.735948 v 21.5775 H 63.681005 v -21.5775 z" /></g><g
     inkscape:groupmode="layer"
     id="layer11"
     inkscape:label="Fotograma-2"
     style="display:none"
     transform="translate(0.55851606,0.27925943)"
     sodipodi:insensitive="true"><rect
       style="display:inline;fill:#ffffff;stroke:#000000;stroke-width:0.79375;stroke-linejoin:round;stroke-dasharray:none"
       id="rect10"
       width="173.07872"
       height="49.90464"
       x="116.13555"
       y="32.14233" /><path
       d="m 156.24491,74.449812 c 0,-1.15127 -0.90777,-1.15127 -1.51296,-1.15127 h -0.9456 v -18.16026 h 0.9456 c 0.56736,0 1.51296,0 1.51296,-1.11413 0,-1.15127 -0.90777,-1.15127 -1.51296,-1.15127 h -4.50105 c -0.56736,0 -1.51296,0 -1.51296,1.11413 0,1.15127 0.90777,1.15127 1.51296,1.15127 h 0.9456 v 7.50178 h -8.01869 v -7.50178 h 0.9456 c 0.56736,0 1.51296,0 1.51296,-1.11413 0,-1.15127 -0.90777,-1.15127 -1.51296,-1.15127 h -4.50105 c -0.60518,0 -1.51296,0 -1.51296,1.15127 0,1.11413 0.9456,1.11413 1.51296,1.11413 h 0.9456 v 18.16026 h -0.9456 c -0.60518,0 -1.51296,0 -1.51296,1.15127 0,1.11413 0.9456,1.11413 1.51296,1.11413 h 4.50105 c 0.56736,0 1.51296,0 1.51296,-1.11413 0,-1.15127 -0.90777,-1.15127 -1.51296,-1.15127 h -0.9456 v -8.39308 h 8.01869 v 8.39308 h -0.9456 c -0.56736,0 -1.51296,0 -1.51296,1.11413 0,1.15127 0.90777,1.15127 1.51296,1.15127 h 4.50105 c 0.56736,0 1.51296,0 1.51296,-1.11413 z"
       id="text10"
       style="font-size:37.4792px;line-height:0.9;font-family:'Latin Modern Mono';-inkscape-font-specification:'Latin Modern Mono';text-align:center;text-anchor:middle;display:inline;fill:#000080;stroke:#000000;stroke-width:0.341;stroke-linejoin:round"
       aria-label="H" /><path
       id="path10"
       style="display:inline;fill:#808080;stroke:#000000;stroke-width:0.341;stroke-linejoin:round"
       d="m 136.64781,58.351212 v 28.82977 h 1.7363 17.49508 1.73594 v -28.82977 h -1.73594 v 21.5775 h -17.49508 v -21.5775 z" /></g><g
     inkscape:groupmode="layer"
     id="layer12"
     inkscape:label="Fotograma-3"
     style="display:none"
     transform="translate(0.55851606,0.27925943)"
     sodipodi:insensitive="true"><rect
       style="display:inline;fill:#ffffff;stroke:#000000;stroke-width:0.79375;stroke-linejoin:round;stroke-dasharray:none"
       id="rect7"
       width="173.07872"
       height="49.90464"
       x="96.242744"
       y="32.14233" /><path
       style="font-size:37.4792px;line-height:0.9;font-family:'Latin Modern Mono';-inkscape-font-specification:'Latin Modern Mono';display:inline;fill:#000080;stroke:#000000;stroke-width:0.341;stroke-linejoin:round"
       d="m 136.55425,74.449805 c 0,-1.15127 -0.90777,-1.15127 -1.51295,-1.15127 h -0.9456 v -18.16026 h 0.9456 c 0.56736,0 1.51295,0 1.51295,-1.11413 0,-1.15126 -0.90777,-1.15126 -1.51295,-1.15126 h -4.50106 c -0.56736,0 -1.51296,0 -1.51296,1.11412 0,1.15127 0.90778,1.15127 1.51296,1.15127 h 0.9456 v 7.50178 h -8.01868 v -7.50178 h 0.9456 c 0.56736,0 1.51296,0 1.51296,-1.11413 0,-1.15126 -0.90778,-1.15126 -1.51296,-1.15126 h -4.50106 c -0.60518,0 -1.51296,0 -1.51296,1.15126 0,1.11413 0.9456,1.11413 1.51296,1.11413 h 0.9456 v 18.16026 h -0.9456 c -0.60518,0 -1.51296,0 -1.51296,1.15127 0,1.11413 0.9456,1.11413 1.51296,1.11413 h 4.50106 c 0.56736,0 1.51296,0 1.51296,-1.11413 0,-1.15127 -0.90778,-1.15127 -1.51296,-1.15127 h -0.9456 v -8.39308 h 8.01868 v 8.39308 h -0.9456 c -0.56736,0 -1.51296,0 -1.51296,1.11413 0,1.15127 0.90778,1.15127 1.51296,1.15127 h 4.50106 c 0.56736,0 1.51295,0 1.51295,-1.11413 z"
       id="text8"
       aria-label="H" /><path
       id="path6"
       style="display:inline;fill:#808080;stroke:#000000;stroke-width:0.341;stroke-linejoin:round"
       d="m 136.64781,58.351215 v 28.82977 h 1.7363 17.49507 1.73595 v -28.82977 h -1.73595 v 21.5775 h -17.49507 v -21.5775 z" /></g><g
     inkscape:groupmode="layer"
     id="layer13"
     inkscape:label="Fotograma-4"
     style="display:none"
     transform="translate(0.55851606,0.27925943)"
     sodipodi:insensitive="true"><rect
       style="display:inline;fill:#ffffff;stroke:#000000;stroke-width:0.79375;stroke-linejoin:round;stroke-dasharray:none"
       id="rect14"
       width="173.07872"
       height="49.90464"
       x="96.242744"
       y="32.142342" /><path
       style="font-size:37.4792px;line-height:0.9;font-family:'Latin Modern Mono';-inkscape-font-specification:'Latin Modern Mono';display:inline;fill:#000080;stroke:#000000;stroke-width:0.341;stroke-linejoin:round"
       d="m 136.55425,74.449792 c 0,-1.15126 -0.90777,-1.15126 -1.51295,-1.15126 h -0.9456 v -18.16026 h 0.9456 c 0.56736,0 1.51295,0 1.51295,-1.11413 0,-1.15126 -0.90777,-1.15126 -1.51295,-1.15126 h -4.50106 c -0.56736,0 -1.51296,0 -1.51296,1.11413 0,1.15126 0.90778,1.15126 1.51296,1.15126 h 0.9456 v 7.50179 h -8.01868 v -7.50179 h 0.9456 c 0.56736,0 1.51296,0 1.51296,-1.11413 0,-1.15126 -0.90778,-1.15126 -1.51296,-1.15126 h -4.50106 c -0.60518,0 -1.51296,0 -1.51296,1.15126 0,1.11413 0.9456,1.11413 1.51296,1.11413 h 0.9456 v 18.16026 h -0.9456 c -0.60518,0 -1.51296,0 -1.51296,1.15126 0,1.11413 0.9456,1.11413 1.51296,1.11413 h 4.50106 c 0.56736,0 1.51296,0 1.51296,-1.11413 0,-1.15126 -0.90778,-1.15126 -1.51296,-1.15126 h -0.9456 v -8.39308 h 8.01868 v 8.39308 h -0.9456 c -0.56736,0 -1.51296,0 -1.51296,1.11413 0,1.15126 0.90778,1.15126 1.51296,1.15126 h 4.50106 c 0.56736,0 1.51295,0 1.51295,-1.11413 z m 18.57157,-10.21283 c 0,-10.73274 -0.79431,-11.7726 -7.79174,-11.7726 -6.99744,0 -7.79174,1.00272 -7.79174,11.7726 0,10.73276 0.7943,11.73548 7.79174,11.73548 6.95961,0 7.79174,-1.00272 7.79174,-11.73548 z m -2.60986,-0.33423 c 0,2.30253 0,4.93929 -0.41606,6.94472 -0.41607,2.07971 -1.39949,2.8596 -4.76582,2.8596 -3.32852,0 -4.27411,-0.77989 -4.728,-2.63677 -0.45389,-1.89401 -0.45389,-5.12498 -0.45389,-7.16755 0,-2.30253 0,-4.82788 0.41606,-6.53621 0.49172,-2.19112 1.66426,-2.63677 4.76583,-2.63677 2.83679,0 4.16063,0.33424 4.72799,2.37681 0.45389,1.74546 0.45389,4.53078 0.45389,6.79617 z"
       id="text14"
       aria-label="HO" /><path
       id="path14"
       style="display:inline;fill:#808080;stroke:#000000;stroke-width:0.341;stroke-linejoin:round"
       d="m 136.64781,58.351212 v 28.82977 h 1.7363 17.49507 1.73595 v -28.82977 h -1.73595 v 21.5775 h -17.49507 v -21.5775 z" /></g><g
     inkscape:groupmode="layer"
     id="layer14"
     inkscape:label="Fotograma-5"
     style="display:none"
     transform="translate(0.55851606,0.27925943)"
     sodipodi:insensitive="true"><rect
       style="display:inline;fill:#ffffff;stroke:#000000;stroke-width:0.79375;stroke-linejoin:round;stroke-dasharray:none"
       id="rect15"
       width="173.07872"
       height="49.90464"
       x="76.554993"
       y="32.142319" /><path
       style="font-size:37.4792px;line-height:0.9;font-family:'Latin Modern Mono';-inkscape-font-specification:'Latin Modern Mono';display:inline;fill:#000080;stroke:#000000;stroke-width:0.341;stroke-linejoin:round"
       d="m 116.58724,74.449815 c 0,-1.15126 -0.90777,-1.15126 -1.51295,-1.15126 h -0.9456 v -18.16026 h 0.9456 c 0.56735,0 1.51295,0 1.51295,-1.11413 0,-1.15126 -0.90777,-1.15126 -1.51295,-1.15126 h -4.50106 c -0.56736,0 -1.51296,0 -1.51296,1.11412 0,1.15127 0.90778,1.15127 1.51296,1.15127 h 0.9456 v 7.50178 h -8.01868 v -7.50178 h 0.9456 c 0.56736,0 1.51296,0 1.51296,-1.11413 0,-1.15126 -0.90778,-1.15126 -1.51296,-1.15126 h -4.501058 c -0.605183,0 -1.512959,0 -1.512959,1.15126 0,1.11413 0.9456,1.11413 1.512959,1.11413 h 0.945598 v 18.16026 h -0.945598 c -0.605183,0 -1.512959,0 -1.512959,1.15126 0,1.11414 0.9456,1.11414 1.512959,1.11414 h 4.501058 c 0.56736,0 1.51296,0 1.51296,-1.11414 0,-1.15126 -0.90778,-1.15126 -1.51296,-1.15126 h -0.9456 v -8.39308 h 8.01868 v 8.39308 h -0.9456 c -0.56736,0 -1.51296,0 -1.51296,1.11413 0,1.15127 0.90778,1.15127 1.51296,1.15127 h 4.50106 c 0.56735,0 1.51295,0 1.51295,-1.11414 z m 18.57156,-10.21282 c 0,-10.73276 -0.7943,-11.77261 -7.79174,-11.77261 -6.99743,0 -7.79174,1.00271 -7.79174,11.77261 0,10.73275 0.79431,11.73547 7.79174,11.73547 6.95962,0 7.79174,-1.00272 7.79174,-11.73547 z m -2.60985,-0.33424 c 0,2.30253 0,4.93929 -0.41606,6.94472 -0.41607,2.0797 -1.39949,2.8596 -4.76583,2.8596 -3.32851,0 -4.2741,-0.7799 -4.72799,-2.63678 -0.45389,-1.89401 -0.45389,-5.12498 -0.45389,-7.16754 0,-2.30253 0,-4.82789 0.41606,-6.53621 0.49172,-2.19111 1.66426,-2.63676 4.76582,-2.63676 2.8368,0 4.16064,0.33423 4.728,2.37679 0.45389,1.74547 0.45389,4.53079 0.45389,6.79618 z"
       id="text15"
       aria-label="HO" /><path
       id="path15"
       style="display:inline;fill:#808080;stroke:#000000;stroke-width:0.341;stroke-linejoin:round"
       d="m 136.64781,58.351215 v 28.82977 h 1.7363 17.49507 1.73595 v -28.82977 h -1.73595 v 21.5775 h -17.49507 v -21.5775 z" /></g><g
     inkscape:groupmode="layer"
     id="layer15"
     inkscape:label="Fotograma-6"
     style="display:none"
     transform="translate(0.55851606,0.27925943)"
     sodipodi:insensitive="true"><rect
       style="display:inline;fill:#ffffff;stroke:#000000;stroke-width:0.79375;stroke-linejoin:round;stroke-dasharray:none"
       id="rect11"
       width="173.07872"
       height="49.90464"
       x="76.554993"
       y="32.142323" /><path
       style="font-size:37.4792px;line-height:0.9;font-family:'Latin Modern Mono';-inkscape-font-specification:'Latin Modern Mono';display:inline;fill:#000080;stroke:#000000;stroke-width:0.341;stroke-linejoin:round"
       d="m 116.58724,74.449842 c 0,-1.15127 -0.90777,-1.15127 -1.51295,-1.15127 h -0.9456 v -18.16027 h 0.9456 c 0.56735,0 1.51295,0 1.51295,-1.11412 0,-1.15127 -0.90777,-1.15127 -1.51295,-1.15127 h -4.50106 c -0.56736,0 -1.51296,0 -1.51296,1.11413 0,1.15126 0.90778,1.15126 1.51296,1.15126 h 0.9456 v 7.50179 h -8.01868 v -7.50179 h 0.9456 c 0.56736,0 1.51296,0 1.51296,-1.11412 0,-1.15127 -0.90778,-1.15127 -1.51296,-1.15127 h -4.501058 c -0.605183,0 -1.512959,0 -1.512959,1.15127 0,1.11412 0.9456,1.11412 1.512959,1.11412 h 0.945598 v 18.16027 h -0.945598 c -0.605183,0 -1.512959,0 -1.512959,1.15127 0,1.11412 0.9456,1.11412 1.512959,1.11412 h 4.501058 c 0.56736,0 1.51296,0 1.51296,-1.11412 0,-1.15127 -0.90778,-1.15127 -1.51296,-1.15127 h -0.9456 v -8.39309 h 8.01868 v 8.39309 h -0.9456 c -0.56736,0 -1.51296,0 -1.51296,1.11413 0,1.15126 0.90778,1.15126 1.51296,1.15126 h 4.50106 c 0.56735,0 1.51295,0 1.51295,-1.11412 z m 18.57156,-10.21283 c 0,-10.73276 -0.7943,-11.77261 -7.79174,-11.77261 -6.99743,0 -7.79174,1.00271 -7.79174,11.77261 0,10.73275 0.79431,11.73546 7.79174,11.73546 6.95962,0 7.79174,-1.00271 7.79174,-11.73546 z m -2.60985,-0.33424 c 0,2.30253 0,4.93929 -0.41606,6.94473 -0.41607,2.07969 -1.39949,2.85958 -4.76583,2.85958 -3.32851,0 -4.2741,-0.77989 -4.72799,-2.63676 -0.45389,-1.89402 -0.45389,-5.12499 -0.45389,-7.16755 0,-2.30253 0,-4.82788 0.41606,-6.53621 0.49172,-2.19112 1.66426,-2.63677 4.76582,-2.63677 2.8368,0 4.16064,0.33424 4.728,2.3768 0.45389,1.74547 0.45389,4.53078 0.45389,6.79618 z m 23.22391,10.13856 v -3.30525 c 0,-0.74276 0,-1.52264 -1.28602,-1.52264 -1.32384,0 -1.32384,0.74275 -1.32384,1.52264 v 2.56249 h -9.11557 v -18.16027 h 2.11814 c 0.52953,0 1.55078,0 1.55078,-1.11412 0,-1.15127 -0.98342,-1.15127 -1.55078,-1.15127 h -6.12749 c -0.60518,0 -1.51295,0 -1.51295,1.15127 0,1.11412 0.94559,1.11412 1.51295,1.11412 h 1.39949 v 18.16027 h -1.39949 c -0.60518,0 -1.51295,0 -1.51295,1.15127 0,1.11412 0.94559,1.11412 1.51295,1.11412 h 14.22182 c 1.24819,0 1.51296,-0.33424 1.51296,-1.52263 z"
       id="text11"
       aria-label="HOL" /><path
       id="path11"
       style="display:inline;fill:#808080;stroke:#000000;stroke-width:0.341;stroke-linejoin:round"
       d="m 136.64781,58.351212 v 28.82977 h 1.7363 17.49507 1.73595 v -28.82977 h -1.73595 v 21.5775 h -17.49507 v -21.5775 z" /></g><g
     inkscape:groupmode="layer"
     id="layer16"
     inkscape:label="Fotograma-7"
     style="display:none"
     transform="translate(0.55851606,0.27925943)"
     sodipodi:insensitive="true"><rect
       style="display:inline;fill:#ffffff;stroke:#000000;stroke-width:0.79375;stroke-linejoin:round;stroke-dasharray:none"
       id="rect12"
       width="173.07872"
       height="49.90464"
       x="56.867241"
       y="32.142357" /><path
       style="font-size:37.4792px;line-height:0.9;font-family:'Latin Modern Mono';-inkscape-font-specification:'Latin Modern Mono';display:inline;fill:#000080;stroke:#000000;stroke-width:0.341;stroke-linejoin:round"
       d="m 96.621292,74.449745 c 0,-1.15125 -0.907775,-1.15125 -1.512958,-1.15125 h -0.9456 v -18.16027 h 0.9456 c 0.567359,0 1.512958,0 1.512958,-1.11413 0,-1.15126 -0.907775,-1.15126 -1.512958,-1.15126 H 90.60728 c -0.56736,0 -1.51296,0 -1.51296,1.11412 0,1.15127 0.907776,1.15127 1.51296,1.15127 h 0.945599 v 7.50179 h -8.018684 v -7.50179 h 0.9456 c 0.56736,0 1.512959,0 1.512959,-1.11413 0,-1.15126 -0.907776,-1.15126 -1.512959,-1.15126 h -4.501054 c -0.605184,0 -1.512959,0 -1.512959,1.15126 0,1.11413 0.945599,1.11413 1.512959,1.11413 h 0.945599 v 18.16027 h -0.945599 c -0.605184,0 -1.512959,0 -1.512959,1.15125 0,1.11414 0.945599,1.11414 1.512959,1.11414 h 4.501054 c 0.56736,0 1.512959,0 1.512959,-1.11414 0,-1.15125 -0.907776,-1.15125 -1.512959,-1.15125 h -0.9456 v -8.39309 h 8.018684 v 8.39309 H 90.60728 c -0.56736,0 -1.51296,0 -1.51296,1.11412 0,1.15127 0.907776,1.15127 1.51296,1.15127 h 4.501054 c 0.567359,0 1.512958,0 1.512958,-1.11414 z m 18.571558,-10.21282 c 0,-10.73276 -0.7943,-11.77261 -7.79174,-11.77261 -6.99743,0 -7.791737,1.00272 -7.791737,11.77261 0,10.73275 0.794307,11.73547 7.791737,11.73547 6.95962,0 7.79174,-1.00272 7.79174,-11.73547 z m -2.60985,-0.33424 c 0,2.30253 0,4.93929 -0.41607,6.94472 -0.41606,2.07971 -1.39948,2.8596 -4.76582,2.8596 -3.32851,0 -4.27411,-0.77989 -4.72799,-2.63677 -0.45389,-1.89401 -0.45389,-5.12498 -0.45389,-7.16755 0,-2.30253 0,-4.82789 0.41606,-6.53621 0.49171,-2.19111 1.66426,-2.63677 4.76582,-2.63677 2.8368,0 4.16064,0.33424 4.728,2.37681 0.45389,1.74546 0.45389,4.53078 0.45389,6.79617 z m 23.22391,10.13855 v -3.30524 c 0,-0.74275 0,-1.52263 -1.28602,-1.52263 -1.32384,0 -1.32384,0.74274 -1.32384,1.52263 v 2.5625 h -9.11558 v -18.16027 h 2.11815 c 0.52953,0 1.55078,0 1.55078,-1.11413 0,-1.15126 -0.98342,-1.15126 -1.55078,-1.15126 h -6.12749 c -0.60518,0 -1.51296,0 -1.51296,1.15126 0,1.11413 0.9456,1.11413 1.51296,1.11413 h 1.39949 v 18.16027 h -1.39949 c -0.60518,0 -1.51296,0 -1.51296,1.15125 0,1.11414 0.9456,1.11414 1.51296,1.11414 h 14.22182 c 1.24819,0 1.51296,-0.33424 1.51296,-1.52265 z"
       id="text12"
       aria-label="HOL" /><path
       id="path12"
       style="display:inline;fill:#808080;stroke:#000000;stroke-width:0.341;stroke-linejoin:round"
       d="m 136.64781,58.351215 v 28.82977 h 1.7363 17.49507 1.73595 v -28.82977 h -1.73595 v 21.5775 h -17.49507 v -21.5775 z" /></g><g
     inkscape:groupmode="layer"
     id="layer17"
     inkscape:label="Fotograma-8"
     transform="translate(0.55851606,0.27925943)"
     style="display:none"
     sodipodi:insensitive="true"><rect
       style="display:inline;fill:#ffffff;stroke:#000000;stroke-width:0.79375;stroke-linejoin:round;stroke-dasharray:none"
       id="rect16"
       width="173.07872"
       height="49.90464"
       x="56.696743"
       y="32.142319" /><path
       d="m 96.66303,74.449742 c 0,-1.15127 -0.907774,-1.15127 -1.512959,-1.15127 h -0.945598 v -18.16025 h 0.945598 c 0.56736,0 1.512959,0 1.512959,-1.11413 0,-1.15126 -0.907774,-1.15126 -1.512959,-1.15126 h -4.501053 c -0.56736,0 -1.512959,0 -1.512959,1.11412 0,1.15127 0.907776,1.15127 1.512959,1.15127 h 0.9456 v 7.50177 h -8.018684 v -7.50177 h 0.945599 c 0.56736,0 1.51296,0 1.51296,-1.11413 0,-1.15126 -0.907776,-1.15126 -1.51296,-1.15126 h -4.501054 c -0.605183,0 -1.512959,0 -1.512959,1.15126 0,1.11413 0.9456,1.11413 1.512959,1.11413 h 0.9456 v 18.16025 h -0.9456 c -0.605183,0 -1.512959,0 -1.512959,1.15127 0,1.11413 0.9456,1.11413 1.512959,1.11413 h 4.501054 c 0.56736,0 1.51296,0 1.51296,-1.11413 0,-1.15127 -0.907776,-1.15127 -1.51296,-1.15127 h -0.945599 v -8.39308 h 8.018684 v 8.39308 h -0.9456 c -0.56736,0 -1.512959,0 -1.512959,1.11414 0,1.15126 0.907776,1.15126 1.512959,1.15126 h 4.501053 c 0.56736,0 1.512959,0 1.512959,-1.11413 z m 18.57156,-10.21283 c 0,-10.73275 -0.7943,-11.77261 -7.79174,-11.77261 -6.99744,0 -7.791739,1.00272 -7.791739,11.77261 0,10.73276 0.794299,11.73548 7.791739,11.73548 6.95961,0 7.79174,-1.00272 7.79174,-11.73548 z m -2.60985,-0.33423 c 0,2.30253 0,4.93929 -0.41607,6.94472 -0.41606,2.0797 -1.39948,2.8596 -4.76582,2.8596 -3.32851,0 -4.27411,-0.7799 -4.728,-2.63678 -0.45388,-1.89401 -0.45388,-5.12498 -0.45388,-7.16754 0,-2.30253 0,-4.82789 0.41606,-6.53621 0.49171,-2.19112 1.66426,-2.63677 4.76582,-2.63677 2.8368,0 4.16064,0.33424 4.728,2.3768 0.45389,1.74547 0.45389,4.53079 0.45389,6.79618 z m 23.22391,10.13855 v -3.30524 c 0,-0.74275 0,-1.52265 -1.28602,-1.52265 -1.32384,0 -1.32384,0.74276 -1.32384,1.52265 v 2.56248 h -9.11558 v -18.16025 h 2.11815 c 0.52953,0 1.55078,0 1.55078,-1.11413 0,-1.15126 -0.98342,-1.15126 -1.55078,-1.15126 h -6.12749 c -0.60518,0 -1.51296,0 -1.51296,1.15126 0,1.11413 0.9456,1.11413 1.51296,1.11413 h 1.39949 v 18.16025 h -1.39949 c -0.60518,0 -1.51296,0 -1.51296,1.15127 0,1.11413 0.9456,1.11413 1.51296,1.11413 h 14.22182 c 1.24819,0 1.51296,-0.33424 1.51296,-1.52264 z m 20.19799,0.40851 c 0,-0.48279 -0.18912,-0.85416 -0.64301,-1.03985 -0.22695,-0.11142 -1.05907,-0.11142 -1.62643,-0.11142 l -4.5767,-19.42294 c -0.34042,-1.41123 -0.86996,-1.44835 -2.0425,-1.44835 -1.09689,0 -1.70208,0 -2.04249,1.41121 l -4.57671,19.46008 c -0.52953,0 -1.39948,0 -1.62643,0.0743 -0.41606,0.22283 -0.643,0.5942 -0.643,1.07699 0,1.11413 0.98342,1.11413 1.62643,1.11413 h 3.85804 c 0.68083,0 1.58861,0 1.58861,-1.11413 0,-1.15127 -0.75648,-1.15127 -2.11814,-1.15127 l 0.86995,-3.8623 h 6.12748 l 0.86995,3.8623 c -1.36166,0 -2.11814,0 -2.11814,1.15127 0,1.11413 0.90778,1.11413 1.58861,1.11413 h 3.85805 c 0.643,0 1.62643,0 1.62643,-1.11413 z m -6.39226,-7.27896 h -4.99276 l 2.49638,-11.66119 z"
       id="text16"
       style="font-size:37.4792px;line-height:0.9;font-family:'Latin Modern Mono';-inkscape-font-specification:'Latin Modern Mono';text-align:center;text-anchor:middle;display:inline;fill:#000080;stroke:#000000;stroke-width:0.341;stroke-linejoin:round"
       aria-label="HOLA" /><path
       id="path16"
       style="display:inline;fill:#808080;stroke:#000000;stroke-width:0.341;stroke-linejoin:round"
       d="m 136.64781,58.351212 v 28.82977 h 1.7363 17.49508 1.73594 v -28.82977 h -1.73594 v 21.5775 h -17.49508 v -21.5775 z" /></g><g
     inkscape:groupmode="layer"
     id="layer18"
     inkscape:label="Fotograma-9"
     style="display:inline"
     transform="translate(0.55851606,0.27925943)"><rect
       style="display:inline;fill:#ffffff;stroke:#000000;stroke-width:0.79375;stroke-linejoin:round;stroke-dasharray:none"
       id="rect17"
       width="173.07872"
       height="49.90464"
       x="37.008995"
       y="32.142265" /><path
       d="m 76.126582,74.449765 c 0,-1.15126 -0.907775,-1.15126 -1.512959,-1.15126 h -0.9456 v -18.16027 h 0.9456 c 0.56736,0 1.512959,0 1.512959,-1.11413 0,-1.15126 -0.907775,-1.15126 -1.512959,-1.15126 h -4.501054 c -0.567359,0 -1.512959,0 -1.512959,1.11413 0,1.15126 0.907776,1.15126 1.512959,1.15126 h 0.9456 v 7.50179 h -8.018684 v -7.50179 h 0.945599 c 0.56736,0 1.51296,0 1.51296,-1.11413 0,-1.15126 -0.907776,-1.15126 -1.51296,-1.15126 H 59.48403 c -0.605183,0 -1.512959,0 -1.512959,1.15126 0,1.11413 0.9456,1.11413 1.512959,1.11413 h 0.9456 v 18.16027 h -0.9456 c -0.605183,0 -1.512959,0 -1.512959,1.15126 0,1.11413 0.9456,1.11413 1.512959,1.11413 h 4.501054 c 0.56736,0 1.51296,0 1.51296,-1.11413 0,-1.15126 -0.907776,-1.15126 -1.51296,-1.15126 h -0.945599 v -8.39309 h 8.018684 v 8.39309 h -0.9456 c -0.567359,0 -1.512959,0 -1.512959,1.11412 0,1.15127 0.907776,1.15127 1.512959,1.15127 h 4.501054 c 0.56736,0 1.512959,0 1.512959,-1.11413 z m 18.571561,-10.21283 c 0,-10.73275 -0.794304,-11.77261 -7.791741,-11.77261 -6.997436,0 -7.791739,1.00272 -7.791739,11.77261 0,10.73276 0.794303,11.73547 7.791739,11.73547 6.959613,0 7.791741,-1.00271 7.791741,-11.73547 z m -2.609855,-0.33423 c 0,2.30253 0,4.93929 -0.416064,6.94472 -0.416064,2.0797 -1.399487,2.85959 -4.765822,2.85959 -3.32851,0 -4.274109,-0.77989 -4.727997,-2.63677 -0.453888,-1.89402 -0.453888,-5.12498 -0.453888,-7.16754 0,-2.30253 0,-4.82789 0.416064,-6.53621 0.491712,-2.19112 1.664255,-2.63677 4.765821,-2.63677 2.836799,0 4.160639,0.33424 4.727998,2.3768 0.453888,1.74547 0.453888,4.53079 0.453888,6.79618 z m 23.223912,10.13855 v -3.30524 c 0,-0.74275 0,-1.52265 -1.28602,-1.52265 -1.32384,0 -1.32384,0.74276 -1.32384,1.52265 v 2.56249 h -9.11558 v -18.16027 h 2.11815 c 0.52953,0 1.55078,0 1.55078,-1.11413 0,-1.15126 -0.98342,-1.15126 -1.55078,-1.15126 h -6.127488 c -0.605184,0 -1.512959,0 -1.512959,1.15126 0,1.11413 0.9456,1.11413 1.512959,1.11413 h 1.399488 v 18.16027 h -1.399488 c -0.605184,0 -1.512959,0 -1.512959,1.15126 0,1.11413 0.9456,1.11413 1.512959,1.11413 h 14.221818 c 1.24819,0 1.51296,-0.33424 1.51296,-1.52264 z m 20.19799,0.40851 c 0,-0.48279 -0.18912,-0.85416 -0.64301,-1.03985 -0.22694,-0.11141 -1.05907,-0.11141 -1.62643,-0.11141 l -4.5767,-19.42295 c -0.34042,-1.41123 -0.86995,-1.44836 -2.0425,-1.44836 -1.09689,0 -1.70208,0 -2.04249,1.41123 l -4.5767,19.46008 c -0.52954,0 -1.39949,0 -1.62644,0.0742 -0.41606,0.22283 -0.643,0.5942 -0.643,1.07699 0,1.11413 0.98342,1.11413 1.62643,1.11413 h 3.85804 c 0.68084,0 1.58861,0 1.58861,-1.11413 0,-1.15126 -0.75648,-1.15126 -2.11814,-1.15126 l 0.86995,-3.86231 h 6.12749 l 0.86995,3.86231 c -1.36167,0 -2.11815,0 -2.11815,1.15126 0,1.11413 0.90778,1.11413 1.58861,1.11413 h 3.85805 c 0.643,0 1.62643,0 1.62643,-1.11413 z m -6.39225,-7.27896 h -4.99277 l 2.49638,-11.66119 z"
       id="text17"
       style="font-size:37.4792px;line-height:0.9;font-family:'Latin Modern Mono';-inkscape-font-specification:'Latin Modern Mono';text-align:center;text-anchor:middle;display:inline;fill:#000080;stroke:#000000;stroke-width:0.341;stroke-linejoin:round"
       aria-label="HOLA" /><path
       id="path17"
       style="display:inline;fill:#808080;stroke:#000000;stroke-width:0.341;stroke-linejoin:round"
       d="m 136.64781,58.351215 v 28.82977 h 1.7363 17.49507 1.73595 v -28.82977 h -1.73595 v 21.5775 h -17.49507 v -21.5775 z" /></g></svg>
