<?xml version="1.0" encoding="UTF-8" standalone="no"?>
<!-- Created with Inkscape (http://www.inkscape.org/) -->

<svg
   width="286.9342mm"
   height="119.73675mm"
   viewBox="0 0 286.93422 119.73675"
   version="1.1"
   id="svg5170"
   inkscape:version="1.4 (e7c3feb, 2024-10-09)"
   sodipodi:docname="PC-15-modem-psk.svg"
   xml:space="preserve"
   xmlns:inkscape="http://www.inkscape.org/namespaces/inkscape"
   xmlns:sodipodi="http://sodipodi.sourceforge.net/DTD/sodipodi-0.dtd"
   xmlns:xlink="http://www.w3.org/1999/xlink"
   xmlns="http://www.w3.org/2000/svg"
   xmlns:svg="http://www.w3.org/2000/svg"
   xmlns:rdf="http://www.w3.org/1999/02/22-rdf-syntax-ns#"
   xmlns:cc="http://creativecommons.org/ns#"
   xmlns:dc="http://purl.org/dc/elements/1.1/"><defs
     id="defs5164"><marker
       inkscape:stockid="TriangleOutM"
       orient="auto"
       refY="0"
       refX="0"
       id="TriangleOutM"
       style="overflow:visible"
       inkscape:isstock="true"><path
         id="path10041"
         d="M 5.77,0 -2.88,5 V -5 Z"
         style="fill:#0000ff;fill-opacity:1;fill-rule:evenodd;stroke:#0000ff;stroke-width:1pt;stroke-opacity:1"
         transform="scale(0.4)"
         inkscape:connector-curvature="0" /></marker><marker
       inkscape:stockid="TriangleOutM"
       orient="auto"
       refY="0"
       refX="0"
       id="TriangleOutM-6"
       style="overflow:visible"
       inkscape:isstock="true"><path
         id="path10041-0"
         d="M 5.77,0 -2.88,5 V -5 Z"
         style="fill:#008000;fill-opacity:1;fill-rule:evenodd;stroke:#008000;stroke-width:1pt;stroke-opacity:1"
         transform="scale(0.4)"
         inkscape:connector-curvature="0" /></marker><marker
       inkscape:stockid="TriangleOutM"
       orient="auto"
       refY="0"
       refX="0"
       id="TriangleOutM-62"
       style="overflow:visible"
       inkscape:isstock="true"><path
         id="path10041-9"
         d="M 5.77,0 -2.88,5 V -5 Z"
         style="fill:#0000ff;fill-opacity:1;fill-rule:evenodd;stroke:#0000ff;stroke-width:1pt;stroke-opacity:1"
         transform="scale(0.4)"
         inkscape:connector-curvature="0" /></marker><marker
       inkscape:stockid="TriangleOutM"
       orient="auto"
       refY="0"
       refX="0"
       id="TriangleOutM-6-6"
       style="overflow:visible"
       inkscape:isstock="true"
       viewBox="0 0 4.2595265 4.9243081"
       markerWidth="4.2595263"
       markerHeight="4.9243083"
       preserveAspectRatio="xMidYMid"><path
         id="path10041-0-1"
         d="M 5.77,0 -2.88,5 V -5 Z"
         style="fill:#008000;fill-opacity:1;fill-rule:evenodd;stroke:#008000;stroke-width:1pt;stroke-opacity:1"
         transform="scale(0.4)"
         inkscape:connector-curvature="0" /></marker><marker
       inkscape:stockid="TriangleOutM"
       orient="auto"
       refY="0"
       refX="0"
       id="TriangleOutM-6-6-7"
       style="overflow:visible"
       inkscape:isstock="true"><path
         id="path10041-0-1-9"
         d="M 5.77,0 -2.88,5 V -5 Z"
         style="fill:#008000;fill-opacity:1;fill-rule:evenodd;stroke:#008000;stroke-width:1pt;stroke-opacity:1"
         transform="scale(0.4)"
         inkscape:connector-curvature="0" /></marker><marker
       inkscape:stockid="TriangleOutM"
       orient="auto"
       refY="0"
       refX="0"
       id="TriangleOutM-6-6-7-3"
       style="overflow:visible"
       inkscape:isstock="true"><path
         id="path10041-0-1-9-7"
         d="M 5.77,0 -2.88,5 V -5 Z"
         style="fill:#008000;fill-opacity:1;fill-rule:evenodd;stroke:#008000;stroke-width:1pt;stroke-opacity:1"
         transform="scale(0.4)"
         inkscape:connector-curvature="0" /></marker><marker
       inkscape:stockid="TriangleOutM"
       orient="auto"
       refY="0"
       refX="0"
       id="TriangleOutM-6-6-7-3-2"
       style="overflow:visible"
       inkscape:isstock="true"><path
         id="path10041-0-1-9-7-8"
         d="M 5.77,0 -2.88,5 V -5 Z"
         style="fill:#008000;fill-opacity:1;fill-rule:evenodd;stroke:#008000;stroke-width:1pt;stroke-opacity:1"
         transform="scale(0.4)"
         inkscape:connector-curvature="0" /></marker><marker
       inkscape:stockid="TriangleOutM"
       orient="auto"
       refY="0"
       refX="0"
       id="TriangleOutM-6-6-7-3-2-6"
       style="overflow:visible"
       inkscape:isstock="true"><path
         id="path10041-0-1-9-7-8-1"
         d="M 5.77,0 -2.88,5 V -5 Z"
         style="fill:#008000;fill-opacity:1;fill-rule:evenodd;stroke:#008000;stroke-width:1pt;stroke-opacity:1"
         transform="scale(0.4)"
         inkscape:connector-curvature="0" /></marker><marker
       inkscape:stockid="Arrow2Lend"
       orient="auto"
       refY="0"
       refX="0"
       id="Arrow2Lend"
       style="overflow:visible"><path
         id="path3225"
         style="font-size:12px;fill-rule:evenodd;stroke-width:0.625;stroke-linejoin:round"
         d="M 8.7185878,4.0337352 -2.2072895,0.01601326 8.7185884,-4.0017078 c -1.7454984,2.3720609 -1.7354408,5.6174519 -6e-7,8.035443 z"
         transform="matrix(-1.1,0,0,-1.1,-1.1,0)" /></marker><marker
       inkscape:stockid="Arrow2Lstart"
       orient="auto"
       refY="0"
       refX="0"
       id="Arrow2Lstart"
       style="overflow:visible"><path
         id="path3228"
         style="font-size:12px;fill-rule:evenodd;stroke-width:0.625;stroke-linejoin:round"
         d="M 8.7185878,4.0337352 -2.2072895,0.01601326 8.7185884,-4.0017078 c -1.7454984,2.3720609 -1.7354408,5.6174519 -6e-7,8.035443 z"
         transform="matrix(1.1,0,0,1.1,1.1,0)" /></marker><marker
       inkscape:stockid="Arrow1Lend"
       orient="auto"
       refY="0"
       refX="0"
       id="Arrow1Lend"
       style="overflow:visible"><path
         id="path3243"
         d="M 0,0 5,-5 -12.5,0 5,5 Z"
         style="fill-rule:evenodd;stroke:#000000;stroke-width:1pt;marker-start:none"
         transform="matrix(-0.8,0,0,-0.8,-10,0)" /></marker><marker
       inkscape:stockid="Arrow1Lstart"
       orient="auto"
       refY="0"
       refX="0"
       id="Arrow1Lstart"
       style="overflow:visible"><path
         id="path3246"
         d="M 0,0 5,-5 -12.5,0 5,5 Z"
         style="fill-rule:evenodd;stroke:#000000;stroke-width:1pt;marker-start:none"
         transform="matrix(0.8,0,0,0.8,10,0)" /></marker><circle
       id="gpDot"
       r="1"
       cx="0"
       cy="0" /><path
       id="gpPt0"
       style="stroke-width:0.222"
       d="M -1,0 H 1 M 0,-1 v 2" /><path
       id="gpPt1"
       style="stroke-width:0.222"
       d="M -1,-1 1,1 M 1,-1 -1,1" /><path
       id="gpPt2"
       style="stroke-width:0.222"
       d="M -1,0 H 1 M 0,-1 v 2 m -1,-2 2,2 m -2,0 2,-2" /><rect
       id="gpPt3"
       style="stroke-width:0.222"
       x="-1"
       y="-1"
       width="2"
       height="2" /><use
       xlink:href="#gpPt3"
       id="gpPt4"
       style="fill:currentColor;stroke:none" /><circle
       id="gpPt5"
       style="stroke-width:0.222"
       cx="0"
       cy="0"
       r="1" /><use
       xlink:href="#gpPt5"
       id="gpPt6"
       style="fill:currentColor;stroke:none" /><path
       id="gpPt7"
       style="stroke-width:0.222"
       d="m 0,-1.33 -1.33,2 h 2.66 z" /><use
       xlink:href="#gpPt7"
       id="gpPt8"
       style="fill:currentColor;stroke:none" /><use
       xlink:href="#gpPt7"
       id="gpPt9"
       transform="scale(-1)" /><use
       xlink:href="#gpPt9"
       id="gpPt10"
       style="fill:currentColor;stroke:none" /><use
       xlink:href="#gpPt3"
       id="gpPt11"
       transform="rotate(45)" /><use
       xlink:href="#gpPt11"
       id="gpPt12"
       style="fill:currentColor;stroke:none" /></defs><sodipodi:namedview
     id="base"
     pagecolor="#ffffff"
     bordercolor="#666666"
     borderopacity="1.0"
     inkscape:pageopacity="0.0"
     inkscape:pageshadow="2"
     inkscape:zoom="0.7"
     inkscape:cx="504.28572"
     inkscape:cy="182.14286"
     inkscape:document-units="mm"
     inkscape:current-layer="layer2"
     showgrid="false"
     inkscape:window-width="1920"
     inkscape:window-height="1043"
     inkscape:window-x="0"
     inkscape:window-y="0"
     inkscape:window-maximized="1"
     fit-margin-top="0"
     fit-margin-left="0"
     fit-margin-right="0"
     fit-margin-bottom="0"
     inkscape:showpageshadow="2"
     inkscape:pagecheckerboard="0"
     inkscape:deskcolor="#d1d1d1"
     showguides="true" /><metadata
     id="metadata5167"><rdf:RDF><cc:Work
         rdf:about=""><dc:format>image/svg+xml</dc:format><dc:type
           rdf:resource="http://purl.org/dc/dcmitype/StillImage" /></cc:Work></rdf:RDF></metadata><g
     inkscape:groupmode="layer"
     id="layer2"
     inkscape:label="Layer 2"
     transform="translate(74.568199,-83.451645)"
     style="display:inline"><rect
       style="opacity:1;fill:none;fill-opacity:1;stroke:none;stroke-width:1.87204;stroke-linecap:round;stroke-linejoin:bevel;stroke-miterlimit:4;stroke-dasharray:none;stroke-dashoffset:0;stroke-opacity:1"
       id="rect8363"
       width="203.40147"
       height="119.73675"
       x="-74.568199"
       y="83.451645"
       inkscape:export-filename="/home/obijuan/develop/digital-electronics-with-open-FPGAs-tutorial/wiki/Tutorial-30/intro-03.png"
       inkscape:export-xdpi="90"
       inkscape:export-ydpi="90" /><rect
       style="display:inline;fill:#ffffff;stroke:none;stroke-width:0.793749;stroke-linecap:round;stroke-linejoin:round;stroke-dasharray:none"
       id="rect70"
       width="286.9342"
       height="119.73674"
       x="-74.568199"
       y="83.451645" /><g
       style="color:#ffffff;fill:none;stroke:currentColor;stroke-width:1;stroke-linecap:butt;stroke-linejoin:miter"
       id="g22"
       transform="matrix(0.26458333,0,0,0.26458333,-77.003906,200.95265)" /><g
       id="g108"
       style="color:#000000;font-size:15px;font-family:Arial;text-anchor:middle;fill:#000000;stroke:none;stroke-width:1;stroke-linecap:butt;stroke-linejoin:miter"
       transform="matrix(0.26458333,0,0,0.26458333,12.42526,208.91661)"><text
         id="text110" /></g><g
       style="color:#000000;fill:none;stroke:currentColor;stroke-width:2;stroke-linecap:butt;stroke-linejoin:miter"
       id="g112"
       transform="matrix(0.26458333,0,0,0.26458333,-77.003906,200.95265)" /><g
       style="color:#0000ff;fill:none;stroke:currentColor;stroke-width:2;stroke-linecap:butt;stroke-linejoin:miter"
       id="g114"
       transform="matrix(0.26458333,0,0,0.26458333,-77.003906,200.95265)" /><g
       style="color:#0000ff;fill:none;stroke:currentColor;stroke-width:1;stroke-linecap:butt;stroke-linejoin:miter"
       id="g126"
       transform="matrix(0.26458333,0,0,0.26458333,-77.003906,200.95265)" /></g><g
     inkscape:label="Layer 1"
     inkscape:groupmode="layer"
     id="layer1"
     transform="translate(74.568199,-83.451645)"
     style="display:inline"><rect
       style="fill:#f2f2f2;stroke:#1a1a1a;stroke-width:0.529167;stroke-miterlimit:4;stroke-dasharray:none;stroke-dashoffset:0;stroke-opacity:1"
       id="rect41"
       width="18.612749"
       height="36.73101"
       x="-204.2155"
       y="130.90161"
       inkscape:export-xdpi="90"
       inkscape:export-ydpi="90"
       inkscape:export-filename="/home/obijuan/develop/digital-electronics-with-open-FPGAs-tutorial/wiki/Tutorial-30/intro-03.png"
       transform="scale(-1,1)" /><rect
       style="fill:#f2f2f2;stroke:#1a1a1a;stroke-width:0.529167;stroke-miterlimit:4;stroke-dasharray:none;stroke-dashoffset:0;stroke-opacity:1"
       id="rect3"
       width="18.612749"
       height="36.73101"
       x="-55.298195"
       y="130.90161"
       inkscape:export-xdpi="90"
       inkscape:export-ydpi="90"
       inkscape:export-filename="/home/obijuan/develop/digital-electronics-with-open-FPGAs-tutorial/wiki/Tutorial-30/intro-03.png" /><text
       xml:space="preserve"
       style="font-style:normal;font-variant:normal;font-weight:normal;font-stretch:normal;font-size:5.07168px;line-height:1.25;font-family:ubuntu;-inkscape-font-specification:ubuntu;text-align:center;letter-spacing:0px;word-spacing:0px;text-anchor:middle;fill:#008000;fill-opacity:1;stroke:none;stroke-width:0.31698"
       x="-23.579708"
       y="175.18466"
       id="text1"
       inkscape:export-filename="/home/obijuan/develop/digital-electronics-with-open-FPGAs-tutorial/wiki/Tutorial-30/intro-03.png"
       inkscape:export-xdpi="90"
       inkscape:export-ydpi="90"><tspan
         sodipodi:role="line"
         x="-23.579708"
         y="175.18466"
         style="font-style:normal;font-variant:normal;font-weight:500;font-stretch:normal;font-family:ubuntu;-inkscape-font-specification:'ubuntu Medium';fill:#008000;stroke:none;stroke-width:0.31698"
         id="tspan1">Puerto</tspan><tspan
         sodipodi:role="line"
         x="-23.579708"
         y="181.52426"
         style="font-style:normal;font-variant:normal;font-weight:500;font-stretch:normal;font-family:ubuntu;-inkscape-font-specification:'ubuntu Medium';fill:#008000;stroke:none;stroke-width:0.31698"
         id="tspan3">Serie</tspan></text><path
       style="display:inline;fill:none;stroke:#0000ff;stroke-width:0.264583;stroke-linecap:square;stroke-linejoin:round;stroke-dasharray:none"
       d="m -30.486759,138.22361 h 6.204479 v 5.72791 h 6.16533 v -5.87632 h 11.9768992 v 5.87632 h 5.96318432 V 138.0752 H 5.9379241 v 5.87632 H 18.06643"
       id="path28" /><rect
       style="fill:#f2f2f2;stroke:#1a1a1a;stroke-width:0.529167;stroke-miterlimit:4;stroke-dasharray:none;stroke-dashoffset:0;stroke-opacity:1"
       id="rect28"
       width="22.615311"
       height="10.597567"
       x="27.207184"
       y="143.96834"
       inkscape:export-xdpi="90"
       inkscape:export-ydpi="90"
       inkscape:export-filename="/home/obijuan/develop/digital-electronics-with-open-FPGAs-tutorial/wiki/Tutorial-30/intro-03.png" /><text
       xml:space="preserve"
       style="font-style:normal;font-variant:normal;font-weight:normal;font-stretch:normal;font-size:11.4743px;line-height:1.25;font-family:ubuntu;-inkscape-font-specification:ubuntu;text-align:center;letter-spacing:0px;word-spacing:0px;text-anchor:middle;fill:#000000;fill-opacity:1;stroke:none;stroke-width:0.475745"
       x="51.630264"
       y="153.32407"
       id="text28"
       inkscape:export-filename="/home/obijuan/develop/digital-electronics-with-open-FPGAs-tutorial/wiki/Tutorial-30/intro-03.png"
       inkscape:export-xdpi="90"
       inkscape:export-ydpi="90"
       transform="scale(0.9964615,1.0035511)"><tspan
         sodipodi:role="line"
         id="tspan28"
         x="51.630264"
         y="153.32407"
         style="font-style:normal;font-variant:normal;font-weight:500;font-stretch:normal;font-family:ubuntu;-inkscape-font-specification:'ubuntu Medium';fill:#000000;stroke-width:0.475745" /></text><path
       id="path29"
       style="color:#0000ff;fill:none;stroke:#ff0000;stroke-width:0.264583;stroke-linecap:butt;stroke-linejoin:miter;stroke-miterlimit:4;stroke-dasharray:none"
       d="m 94.961216,138.55445 v -1.5e-4 m 2.03869,1.5e-4 -0.0204,-0.43811 -0.0209,-0.43812 -0.0204,-0.43074 -0.0209,-0.42704 -0.0204,-0.42333 -0.0209,-0.41227 -0.0204,-0.40073 -0.0204,-0.38963 -0.0209,-0.37441 -0.0204,-0.36331 -0.0209,-0.34442 -0.0204,-0.32593 -0.0209,-0.307 -0.0204,-0.28854 -0.0204,-0.26592 -0.0209,-0.2395 -0.0204,-0.22113 -0.0209,-0.1948 -0.0204,-0.16845 -0.0204,-0.14258 -0.0209,-0.11964 -0.0204,-0.0901 -0.0209,-0.0599 -0.0204,-0.0324 -0.0208,-0.005 -0.0204,0.0193 -0.0204,0.0486 -0.0208,0.0785 -0.0204,0.10102 -0.0208,0.13123 -0.0204,0.15685 -0.0208,0.18005 -0.0204,0.20954 -0.0204,0.22838 -0.0208,0.25485 -0.0204,0.27699 -0.0208,0.29593 -0.0204,0.31853 -0.0208,0.33702 -0.0204,0.35225 -0.0204,0.36703 -0.0208,0.38594 -0.0204,0.39333 -0.0208,0.40812 -0.0204,0.41549 -0.0208,0.42702 -0.0204,0.43075 -0.0204,0.43441 -0.0208,0.43442 -0.0204,0.44181 -0.0208,0.43444 -0.0204,0.43441 -0.0204,0.43072 -0.0208,0.42705 -0.0204,0.41595 -0.0208,0.40812 -0.0204,0.39333 -0.0208,0.38596 -0.0204,0.36701 -0.0204,0.35225 -0.0208,0.33702 -0.0204,0.31853 -0.0208,0.29593 -0.0204,0.27699 -0.0208,0.25485 -0.0204,0.22838 -0.0204,0.20954 -0.0208,0.18005 -0.0204,0.15733 -0.0208,0.13099 -0.0204,0.10102 -0.0208,0.0785 -0.0204,0.0486 -0.0204,0.0193 -0.0208,-0.005 -0.0204,-0.0324 -0.0208,-0.0599 -0.0204,-0.0901 -0.0208,-0.11963 -0.0204,-0.14259 -0.0204,-0.16845 -0.0208,-0.1948 -0.0204,-0.22113 -0.0208,-0.2395 -0.0204,-0.26592 -0.0204,-0.28854 -0.0208,-0.307 -0.0204,-0.32593 -0.0208,-0.34439 -0.0204,-0.36334 -0.0208,-0.37441 -0.0204,-0.38963 -0.0204,-0.40072 -0.0208,-0.41228 -0.0204,-0.42333 -0.0208,-0.42704 -0.0204,-0.43072 -0.0208,-0.43814 -0.0204,-0.43811 m 2.03902,5e-5 v -1.2e-4 m 2.03869,1.2e-4 -0.0204,-0.43811 -0.0209,-0.43812 -0.0204,-0.43072 -0.0208,-0.42704 -0.0204,-0.42335 -0.0209,-0.41179 -0.0204,-0.40073 -0.0204,-0.38963 -0.0209,-0.37487 -0.0204,-0.36333 -0.0209,-0.3444 -0.0204,-0.32595 -0.0209,-0.307 -0.0204,-0.28854 -0.0204,-0.26592 -0.0209,-0.2395 -0.0204,-0.22113 -0.0209,-0.1948 -0.0204,-0.16845 -0.0204,-0.14259 -0.0209,-0.11963 -0.0204,-0.0901 -0.0209,-0.0599 -0.0204,-0.0324 -0.0209,-0.005 -0.0204,0.0193 -0.0204,0.0486 -0.0209,0.0785 -0.0204,0.10102 -0.0209,0.13099 -0.0204,0.15733 -0.0209,0.18005 -0.0204,0.20954 -0.0204,0.22862 -0.0209,0.25483 -0.0204,0.27701 -0.0209,0.29591 -0.0204,0.31856 -0.0209,0.33702 -0.0204,0.35224 -0.0204,0.36701 -0.0209,0.38596 -0.0204,0.39333 -0.0209,0.4081 -0.0204,0.41595 -0.0209,0.42705 -0.0204,0.43074 -0.0204,0.43441 -0.0209,0.43442 -0.0204,0.44181 -0.0209,0.43442 -0.0204,0.43444 -0.0204,0.43071 -0.0209,0.42705 -0.0204,0.41595 -0.0209,0.4081 -0.0204,0.39335 -0.0209,0.38594 -0.0204,0.36701 -0.0204,0.35227 -0.0209,0.33699 -0.0204,0.31856 -0.0209,0.29591 -0.0204,0.27701 -0.0209,0.25482 -0.0204,0.22863 -0.0204,0.20954 -0.0209,0.18005 -0.0204,0.15733 -0.0209,0.13123 -0.0204,0.10102 -0.0209,0.079 -0.0204,0.0486 -0.0204,0.0193 -0.0209,-0.005 -0.0204,-0.0324 -0.0209,-0.0599 -0.0204,-0.0901 -0.0209,-0.11963 -0.0204,-0.14259 -0.0204,-0.16845 -0.0209,-0.19479 -0.0204,-0.22114 -0.0209,-0.2395 -0.0204,-0.26592 -0.0204,-0.28854 -0.0209,-0.307 -0.0204,-0.32593 -0.0209,-0.34441 -0.0204,-0.36331 -0.0209,-0.37441 -0.0204,-0.38966 -0.0204,-0.4007 -0.0209,-0.41228 -0.0204,-0.42335 -0.0209,-0.42702 -0.0204,-0.43074 -0.0209,-0.43811 -0.0204,-0.43811 m 2.02974,-0.21872 v -1.5e-4 m 2.038694,1.5e-4 -0.0204,-0.43814 -0.0209,-0.43811 -0.0204,-0.43072 -0.0209,-0.42705 -0.0204,-0.42334 -0.0209,-0.4118 -0.0204,-0.40072 -0.0204,-0.38964 -0.0209,-0.3744 -0.0204,-0.36334 -0.0209,-0.34485 -0.0204,-0.32593 -0.0209,-0.307 -0.0204,-0.28854 -0.0204,-0.26592 -0.0209,-0.2395 -0.0204,-0.22114 -0.0209,-0.19479 -0.0204,-0.16845 -0.0204,-0.14259 -0.0209,-0.11963 -0.0204,-0.0901 -0.0209,-0.0599 -0.0204,-0.0324 -0.0209,-0.005 -0.0204,0.0193 -0.0204,0.0486 -0.0209,0.0786 -0.0204,0.10102 -0.0209,0.13099 -0.0204,0.15733 -0.0209,0.18005 -0.0204,0.20954 -0.0204,0.22838 -0.0209,0.25485 -0.0204,0.27699 -0.0209,0.29593 -0.0204,0.31853 -0.0209,0.33702 -0.0204,0.35225 -0.0204,0.36701 -0.0209,0.38596 -0.0204,0.39333 -0.0209,0.40858 -0.0204,0.41549 -0.0209,0.42702 -0.0204,0.43074 -0.0204,0.43442 -0.0209,0.43442 -0.0204,0.44181 -0.0209,0.43444 -0.0204,0.43441 -0.0204,0.43072 -0.0209,0.42704 -0.0204,0.41596 -0.0209,0.40812 -0.0204,0.39333 -0.0209,0.38593 -0.0204,0.36704 -0.0204,0.35224 -0.0209,0.33702 -0.0204,0.31854 -0.0209,0.29593 -0.0204,0.27699 -0.0209,0.25485 -0.0204,0.22838 -0.0204,0.20954 -0.0209,0.18005 -0.0204,0.15684 -0.0209,0.13124 -0.0204,0.10102 -0.0209,0.079 -0.0204,0.0486 -0.0204,0.0193 -0.0209,-0.005 -0.0204,-0.0324 -0.0209,-0.0599 -0.0204,-0.0901 -0.0209,-0.11963 -0.0204,-0.14259 -0.0204,-0.16845 -0.0209,-0.1948 -0.0204,-0.22113 -0.0209,-0.2395 -0.0204,-0.26592 -0.0204,-0.28854 -0.0209,-0.307 -0.0204,-0.32593 -0.0208,-0.34439 -0.0204,-0.36334 -0.0209,-0.37441 -0.0204,-0.38963 -0.0204,-0.40072 -0.0209,-0.41228 -0.0204,-0.42333 -0.0209,-0.42704 -0.0204,-0.43072 -0.0209,-0.43814 -0.0204,-0.43811 m -6.10461,0.21896 v -1.4e-4 m 2.03869,1.4e-4 -0.0204,-0.43811 -0.0208,-0.43812 -0.0204,-0.43074 -0.0208,-0.42704 -0.0204,-0.42333 -0.0208,-0.41227 -0.0204,-0.40073 -0.0204,-0.38963 -0.0208,-0.37441 -0.0204,-0.36331 -0.0208,-0.34442 -0.0204,-0.32592 -0.0208,-0.30701 -0.0204,-0.28854 -0.0204,-0.26591 -0.0208,-0.23951 -0.0204,-0.22113 -0.0208,-0.19479 -0.0204,-0.16845 -0.0204,-0.14259 -0.0208,-0.12012 -0.0204,-0.0901 -0.0208,-0.0599 -0.0204,-0.0324 -0.0208,-0.01 -0.0204,0.0193 -0.0204,0.0486 -0.0208,0.079 -0.0204,0.10102 -0.0208,0.13123 -0.0204,0.15685 -0.0208,0.18005 -0.0204,0.20953 -0.0204,0.22839 -0.0208,0.25485 -0.0204,0.27699 -0.0208,0.29593 -0.0204,0.31853 -0.0208,0.33702 -0.0204,0.35225 -0.0204,0.36703 -0.0208,0.38594 -0.0204,0.39333 -0.0208,0.40812 -0.0204,0.41595 -0.0208,0.42704 -0.0204,0.43072 -0.0204,0.43442 -0.0208,0.43444 -0.0204,0.44181 -0.0208,0.43442 -0.0204,0.43441 -0.0204,0.43074 -0.0208,0.42702 -0.0204,0.41595 -0.0208,0.40813 -0.0204,0.39333 -0.0208,0.38596 -0.0204,0.36701 -0.0204,0.35224 -0.0208,0.33702 -0.0204,0.31853 -0.0208,0.29594 -0.0204,0.27698 -0.0208,0.25485 -0.0204,0.22839 -0.0204,0.20953 -0.0208,0.18005 -0.0204,0.15685 -0.0208,0.13099 -0.0204,0.10102 -0.0208,0.079 -0.0204,0.0486 -0.0204,0.0193 -0.0208,-0.005 -0.0204,-0.0324 -0.0208,-0.0599 -0.0204,-0.0901 -0.0208,-0.11963 -0.0204,-0.14259 -0.0204,-0.16845 -0.0208,-0.19479 -0.0204,-0.22113 -0.0208,-0.23951 -0.0204,-0.26591 -0.0204,-0.28854 -0.0208,-0.30701 -0.0204,-0.32592 -0.0208,-0.34439 -0.0204,-0.36334 -0.0208,-0.37441 -0.0204,-0.38963 -0.0204,-0.40073 -0.0208,-0.41225 -0.0204,-0.42335 -0.0208,-0.42704 -0.0204,-0.43072 -0.0208,-0.43811 -0.0204,-0.43814 m -4.06708,0.2192 v -1.9e-4 m 2.03869,1.9e-4 -0.0204,-0.43811 -0.0208,-0.43812 -0.0204,-0.43074 -0.0208,-0.42702 -0.0204,-0.42335 -0.0208,-0.41227 -0.0204,-0.40071 -0.0204,-0.38965 -0.0208,-0.37441 -0.0204,-0.36331 -0.0208,-0.34442 -0.0204,-0.32593 -0.0208,-0.307 -0.0204,-0.28854 -0.0204,-0.26592 -0.0208,-0.2395 -0.0204,-0.22113 -0.0208,-0.1948 -0.0204,-0.16845 -0.0204,-0.14259 -0.0208,-0.11963 -0.0204,-0.0901 -0.0208,-0.0599 -0.0204,-0.0324 -0.0208,-0.005 -0.0204,0.0193 -0.0204,0.0486 -0.0208,0.0785 -0.0204,0.10102 -0.0208,0.13123 -0.0204,0.15734 -0.0208,0.18005 -0.0204,0.20953 -0.0204,0.22863 -0.0208,0.25482 -0.0204,0.27701 -0.0208,0.29591 -0.0204,0.31856 -0.0208,0.33699 -0.0204,0.35227 -0.0204,0.36701 -0.0208,0.38594 -0.0204,0.39335 -0.0208,0.4081 -0.0204,0.41595 -0.0208,0.42705 -0.0204,0.43072 -0.0204,0.43444 -0.0208,0.43441 -0.0204,0.44227 -0.0208,0.43442 -0.0204,0.43444 -0.0204,0.43072 -0.0208,0.42704 -0.0204,0.41595 -0.0208,0.4081 -0.0204,0.39335 -0.0208,0.38594 -0.0204,0.36701 -0.0204,0.35224 -0.0208,0.33702 -0.0204,0.31856 -0.0208,0.29591 -0.0204,0.27701 -0.0208,0.25483 -0.0204,0.22862 -0.0204,0.20954 -0.0208,0.18005 -0.0204,0.15709 -0.0208,0.13099 -0.0204,0.10102 -0.0208,0.0785 -0.0204,0.0486 -0.0204,0.0193 -0.0208,-0.01 -0.0204,-0.0324 -0.0208,-0.0599 -0.0204,-0.0901 -0.0208,-0.11963 -0.0204,-0.14259 -0.0204,-0.16845 -0.0208,-0.19479 -0.0204,-0.22114 -0.0208,-0.2395 -0.0204,-0.26592 -0.0204,-0.28854 -0.0208,-0.307 -0.0204,-0.32595 -0.0208,-0.34485 -0.0204,-0.36334 -0.0208,-0.3744 -0.0204,-0.38964 -0.0204,-0.40072 -0.0208,-0.4118 -0.0204,-0.42334 -0.0208,-0.42705 -0.0204,-0.43072 -0.0208,-0.43811 -0.0204,-0.43811 m 2.03879,0 v -1.5e-4 m 2.03869,1.5e-4 -0.0204,-0.43812 -0.0208,-0.43811 -0.0204,-0.43074 -0.0208,-0.42705 -0.0204,-0.42332 -0.0208,-0.41228 -0.0204,-0.40072 -0.0204,-0.38964 -0.0208,-0.3744 -0.0204,-0.36332 -0.0208,-0.34441 -0.0204,-0.32593 -0.0208,-0.307 -0.0204,-0.28854 -0.0204,-0.26592 -0.0208,-0.2395 -0.0204,-0.22114 -0.0208,-0.19479 -0.0204,-0.16845 -0.0204,-0.14259 -0.0208,-0.11963 -0.0204,-0.0901 -0.0208,-0.0599 -0.0204,-0.0324 -0.0208,-0.005 -0.0204,0.0193 -0.0204,0.0486 -0.0208,0.079 -0.0204,0.10102 -0.0208,0.13123 -0.0204,0.15734 -0.0208,0.18005 -0.0204,0.20953 -0.0204,0.22839 -0.0208,0.25484 -0.0204,0.27699 -0.0208,0.29594 -0.0204,0.31855 -0.0208,0.337 -0.0204,0.35224 -0.0204,0.36704 -0.0208,0.38593 -0.0204,0.39333 -0.0208,0.40812 -0.0204,0.41596 -0.0208,0.42704 -0.0204,0.43072 -0.0204,0.43441 -0.0208,0.43444 -0.0204,0.44182 -0.0208,0.43441 -0.0204,0.43442 -0.0204,0.43074 -0.0208,0.42702 -0.0204,0.41597 -0.0208,0.4081 -0.0204,0.39333 -0.0208,0.38596 -0.0204,0.36701 -0.0204,0.35225 -0.0208,0.33702 -0.0204,0.31853 -0.0208,0.29593 -0.0204,0.27699 -0.0208,0.25485 -0.0204,0.22863 -0.0204,0.20953 -0.0208,0.18005 -0.0204,0.15733 -0.0208,0.13099 -0.0204,0.10102 -0.0208,0.079 -0.0204,0.0486 -0.0204,0.0193 -0.0208,-0.005 -0.0204,-0.0324 -0.0208,-0.0599 -0.0204,-0.0902 -0.0208,-0.11963 -0.0204,-0.14259 -0.0204,-0.16845 -0.0208,-0.19479 -0.0204,-0.22113 -0.0208,-0.23975 -0.0204,-0.26589 -0.0204,-0.28854 -0.0208,-0.307 -0.0204,-0.32595 -0.0208,-0.3444 -0.0204,-0.36333 -0.0208,-0.37441 -0.0204,-0.38963 -0.0204,-0.40073 -0.0208,-0.41225 -0.0204,-0.42335 -0.0208,-0.42704 -0.0204,-0.43072 -0.0208,-0.43812 -0.0204,-0.43811 m -2.02916,-0.0145 v -1.4e-4 m -2.03869,1.4e-4 0.0204,-0.43811 0.0208,-0.43814 0.0204,-0.43072 0.0208,-0.42704 0.0204,-0.42335 0.0208,-0.41179 0.0204,-0.40073 0.0204,-0.38963 0.0208,-0.37441 0.0204,-0.36334 0.0208,-0.34485 0.0204,-0.32593 0.0208,-0.307 0.0204,-0.28854 0.0204,-0.26592 0.0208,-0.2395 0.0204,-0.22113 0.0208,-0.1948 0.0204,-0.16844 0.0204,-0.14259 0.0208,-0.11963 0.0204,-0.0901 0.0208,-0.0599 0.0204,-0.0324 0.0208,-0.005 0.0204,0.0193 0.0204,0.0483 0.0208,0.079 0.0204,0.10102 0.0208,0.13124 0.0204,0.15733 0.0208,0.18005 0.0204,0.20953 0.0204,0.22839 0.0208,0.25485 0.0204,0.27698 0.0208,0.29594 0.0204,0.31853 0.0208,0.33702 0.0204,0.35224 0.0204,0.36704 0.0208,0.38594 0.0204,0.39333 0.0208,0.40812 0.0204,0.41595 0.0208,0.42704 0.0204,0.43072 0.0204,0.43442 0.0208,0.43444 0.0204,0.44227 0.0208,0.43441 0.0204,0.43442 0.0204,0.43074 0.0208,0.42702 0.0204,0.41598 0.0208,0.40809 0.0204,0.39333 0.0208,0.38596 0.0204,0.36701 0.0204,0.35225 0.0208,0.33702 0.0204,0.31853 0.0208,0.29594 0.0204,0.27698 0.0208,0.25485 0.0204,0.22863 0.0204,0.20953 0.0208,0.18005 0.0204,0.15733 0.0208,0.13099 0.0204,0.10103 0.0208,0.079 0.0204,0.0486 0.0204,0.0193 0.0208,-0.005 0.0204,-0.0324 0.0208,-0.0599 0.0204,-0.0901 0.0208,-0.11964 0.0204,-0.14259 0.0204,-0.16844 0.0208,-0.1948 0.0204,-0.22113 0.0208,-0.2395 0.0204,-0.2659 0.0204,-0.28854 0.0208,-0.307 0.0204,-0.32595 0.0208,-0.34439 0.0204,-0.36334 0.0208,-0.37441 0.0204,-0.38963 0.0204,-0.40073 0.0208,-0.41225 0.0204,-0.42335 0.0208,-0.42704 0.0204,-0.43072 0.0208,-0.43811 0.0204,-0.43812 m -2.03879,5e-5 1e-5,-1.4e-4 m -2.0387,1.4e-4 0.0204,-0.43814 0.0208,-0.43811 0.0204,-0.43072 0.0208,-0.42704 0.0204,-0.42335 0.0208,-0.41179 0.0204,-0.40073 0.0204,-0.38963 0.0208,-0.37441 0.0204,-0.36334 0.0208,-0.34439 0.0204,-0.32592 0.0208,-0.30701 0.0204,-0.28854 0.0204,-0.26591 0.0208,-0.23951 0.0204,-0.22113 0.0208,-0.19479 0.0204,-0.16845 0.0204,-0.14259 0.0208,-0.11963 0.0204,-0.0902 0.0208,-0.0599 0.0204,-0.0324 0.0208,-0.005 0.0204,0.0193 0.0204,0.0486 0.0208,0.079 0.0204,0.10102 0.0208,0.13123 0.0204,0.15685 0.0208,0.18005 0.0204,0.20953 0.0204,0.22839 0.0208,0.25485 0.0204,0.27698 0.0208,0.29594 0.0204,0.31853 0.0208,0.33702 0.0204,0.35224 0.0204,0.36704 0.0208,0.38593 0.0204,0.39334 0.0208,0.40812 0.0204,0.41595 0.0208,0.42704 0.0204,0.43072 0.0204,0.43442 0.0208,0.43444 0.0204,0.44181 0.0208,0.43441 0.0204,0.43442 0.0204,0.43074 0.0208,0.42702 0.0204,0.41595 0.0208,0.40812 0.0204,0.39333 0.0208,0.38596 0.0204,0.36702 0.0204,0.35224 0.0208,0.33702 0.0204,0.31853 0.0208,0.29594 0.0204,0.27698 0.0208,0.25485 0.0204,0.22839 0.0204,0.20953 0.0208,0.18005 0.0204,0.15733 0.0208,0.13099 0.0204,0.10102 0.0208,0.079 0.0204,0.0483 0.0204,0.0193 0.0208,-0.005 0.0204,-0.0324 0.0208,-0.0599 0.0204,-0.0902 0.0208,-0.11963 0.0204,-0.14259 0.0204,-0.16845 0.0208,-0.19479 0.0204,-0.22113 0.0208,-0.23951 0.0204,-0.26592 0.0204,-0.28853 0.0208,-0.30701 0.0204,-0.32592 0.0208,-0.34439 0.0204,-0.36334 0.0208,-0.37441 0.0204,-0.38963 0.0204,-0.40073 0.0208,-0.41225 0.0204,-0.42335 0.0208,-0.42704 0.0204,-0.43072 0.0208,-0.43812 0.0204,-0.43811 m -2.02858,-0.21896 v -1.4e-4 m -2.03869,1.4e-4 0.0204,-0.43811 0.0208,-0.43812 0.0204,-0.43074 0.0208,-0.42702 0.0204,-0.42334 0.0208,-0.41228 0.0204,-0.4007 0.0204,-0.38966 0.0208,-0.37441 0.0204,-0.36331 0.0208,-0.34442 0.0204,-0.32592 0.0208,-0.30701 0.0204,-0.28854 0.0204,-0.26591 0.0208,-0.23951 0.0204,-0.22113 0.0208,-0.19479 0.0204,-0.16845 0.0204,-0.14259 0.0208,-0.11963 0.0204,-0.0899 0.0208,-0.0599 0.0204,-0.0324 0.0208,-0.005 0.0204,0.0193 0.0204,0.0486 0.0208,0.0785 0.0204,0.10103 0.0208,0.13098 0.0204,0.15734 0.0208,0.18005 0.0204,0.20953 0.0204,0.22863 0.0208,0.25482 0.0204,0.27701 0.0208,0.29591 0.0204,0.31856 0.0208,0.337 0.0204,0.35226 0.0204,0.36702 0.0208,0.38593 0.0204,0.39336 0.0208,0.40809 0.0204,0.41595 0.0208,0.42705 0.0204,0.43072 0.0204,0.43444 0.0208,0.43441 0.0204,0.44181 0.0208,0.43442 0.0204,0.43442 0.0204,0.43074 0.0208,0.42704 0.0204,0.41595 0.0208,0.4081 0.0204,0.39333 0.0208,0.38596 0.0204,0.36701 0.0204,0.35225 0.0208,0.33702 0.0204,0.31855 0.0208,0.29591 0.0204,0.27701 0.0208,0.25483 0.0204,0.22863 0.0204,0.20953 0.0208,0.18005 0.0204,0.15709 0.0208,0.13099 0.0204,0.10102 0.0208,0.079 0.0204,0.0486 0.0204,0.0193 0.0208,-0.005 0.0204,-0.0324 0.0208,-0.0599 0.0204,-0.0902 0.0208,-0.11963 0.0204,-0.14259 0.0204,-0.16845 0.0208,-0.19479 0.0204,-0.22114 0.0208,-0.2395 0.0204,-0.26592 0.0204,-0.28854 0.0208,-0.307 0.0204,-0.32595 0.0208,-0.34439 0.0204,-0.36334 0.0208,-0.37441 0.0204,-0.38963 0.0204,-0.40072 0.0208,-0.41226 0.0204,-0.42334 0.0208,-0.42705 0.0204,-0.43072 0.0208,-0.43811 0.0204,-0.43811 m -4.06546,0.0145 v -1.5e-4 m 2.03869,1.5e-4 -0.0204,-0.43812 -0.0208,-0.43811 -0.0204,-0.43074 -0.0208,-0.42702 -0.0204,-0.42335 -0.0208,-0.41182 -0.0204,-0.4007 -0.0204,-0.38966 -0.0208,-0.3744 -0.0204,-0.36332 -0.0208,-0.34487 -0.0204,-0.32593 -0.0208,-0.307 -0.0204,-0.28854 -0.0204,-0.26592 -0.0208,-0.2395 -0.0204,-0.22114 -0.0208,-0.19479 -0.0204,-0.16845 -0.0204,-0.14259 -0.0208,-0.11963 -0.0204,-0.0901 -0.0208,-0.0599 -0.0204,-0.0324 -0.0208,-0.005 -0.0204,0.0193 -0.0204,0.0486 -0.0208,0.079 -0.0204,0.10102 -0.0208,0.13123 -0.0204,0.15734 -0.0208,0.18005 -0.0204,0.20953 -0.0204,0.22863 -0.0208,0.25482 -0.0204,0.27699 -0.0208,0.29593 -0.0204,0.31856 -0.0208,0.33699 -0.0204,0.35225 -0.0204,0.36704 -0.0208,0.38593 -0.0204,0.39333 -0.0208,0.40812 -0.0204,0.41595 -0.0208,0.42705 -0.0204,0.43072 -0.0204,0.43444 -0.0208,0.43441 -0.0204,0.44181 -0.0208,0.43442 -0.0204,0.43441 -0.0204,0.43075 -0.0208,0.42702 -0.0204,0.41597 -0.0208,0.4081 -0.0204,0.39333 -0.0208,0.38596 -0.0204,0.36701 -0.0204,0.35225 -0.0208,0.33702 -0.0204,0.31855 -0.0208,0.29591 -0.0204,0.27701 -0.0208,0.25483 -0.0204,0.22862 -0.0204,0.20954 -0.0208,0.18005 -0.0204,0.15733 -0.0208,0.13099 -0.0204,0.10102 -0.0208,0.0786 -0.0204,0.0486 -0.0204,0.0193 -0.0208,-0.005 -0.0204,-0.0324 -0.0208,-0.0599 -0.0204,-0.0901 -0.0208,-0.11963 -0.0204,-0.14259 -0.0204,-0.16845 -0.0208,-0.19479 -0.0204,-0.22114 -0.0209,-0.23974 -0.0204,-0.2659 -0.0204,-0.28854 -0.0208,-0.307 -0.0204,-0.32595 -0.0208,-0.34439 -0.0204,-0.36334 -0.0208,-0.37441 -0.0204,-0.38963 -0.0204,-0.40072 -0.0208,-0.41226 -0.0204,-0.42335 -0.0208,-0.42704 -0.0204,-0.43072 -0.0208,-0.43811 -0.0204,-0.43811 m -2.0284,0.2192 v -1.7e-4 m 2.0387,1.7e-4 -0.0204,-0.43812 -0.0208,-0.43811 -0.0204,-0.43072 -0.0208,-0.42704 -0.0204,-0.42335 -0.0208,-0.41179 -0.0204,-0.40073 -0.0204,-0.38963 -0.0208,-0.37441 -0.0204,-0.36334 -0.0208,-0.34439 -0.0204,-0.32593 -0.0208,-0.307 -0.0204,-0.28854 -0.0204,-0.26592 -0.0208,-0.2395 -0.0204,-0.22113 -0.0208,-0.1948 -0.0204,-0.16844 -0.0204,-0.14259 -0.0208,-0.12012 -0.0204,-0.0901 -0.0208,-0.0599 -0.0204,-0.0324 -0.0208,-0.01 -0.0204,0.0193 -0.0204,0.0486 -0.0208,0.079 -0.0204,0.10102 -0.0208,0.13099 -0.0204,0.15685 -0.0208,0.18005 -0.0204,0.20953 -0.0204,0.22863 -0.0208,0.25482 -0.0204,0.27702 -0.0208,0.29591 -0.0204,0.31855 -0.0208,0.33702 -0.0204,0.35225 -0.0204,0.36701 -0.0208,0.38596 -0.0204,0.39333 -0.0208,0.40809 -0.0204,0.41596 -0.0208,0.42704 -0.0204,0.43074 -0.0204,0.43442 -0.0208,0.43441 -0.0204,0.44181 -0.0208,0.43442 -0.0204,0.43444 -0.0204,0.43072 -0.0208,0.42704 -0.0204,0.41595 -0.0208,0.4081 -0.0204,0.39336 -0.0208,0.38593 -0.0204,0.36704 -0.0204,0.35224 -0.0208,0.337 -0.0204,0.31855 -0.0208,0.29591 -0.0204,0.27701 -0.0208,0.25483 -0.0204,0.22863 -0.0204,0.20953 -0.0208,0.18005 -0.0204,0.15685 -0.0208,0.13123 -0.0204,0.10102 -0.0208,0.0785 -0.0204,0.0486 -0.0204,0.0193 -0.0208,-0.005 -0.0204,-0.0324 -0.0208,-0.0599 -0.0204,-0.0901 -0.0208,-0.11963 -0.0204,-0.14259 -0.0204,-0.16845 -0.0208,-0.19479 -0.0204,-0.22114 -0.0208,-0.2395 -0.0204,-0.26592 -0.0204,-0.28854 -0.0208,-0.307 -0.0204,-0.32595 -0.0208,-0.34439 -0.0204,-0.36332 -0.0208,-0.3744 -0.0204,-0.38966 -0.0204,-0.40073 -0.0208,-0.41179 -0.0204,-0.42335 -0.0208,-0.42702 -0.0204,-0.43074 -0.0208,-0.43811 -0.0204,-0.43812 m -2.03223,5e-5 -1e-5,-1.4e-4 m 2.0387,1.4e-4 -0.0204,-0.43811 -0.0208,-0.43812 -0.0204,-0.43074 -0.0208,-0.42702 -0.0204,-0.42335 -0.0208,-0.41181 -0.0204,-0.40071 -0.0204,-0.38965 -0.0208,-0.37441 -0.0204,-0.36331 -0.0208,-0.34442 -0.0204,-0.32593 -0.0208,-0.307 -0.0204,-0.28854 -0.0204,-0.26592 -0.0208,-0.2395 -0.0204,-0.22113 -0.0208,-0.1948 -0.0204,-0.16845 -0.0204,-0.14259 -0.0208,-0.11963 -0.0204,-0.0899 -0.0208,-0.0599 -0.0204,-0.0324 -0.0208,-0.01 -0.0204,0.0193 -0.0204,0.0486 -0.0208,0.0785 -0.0204,0.10102 -0.0208,0.13099 -0.0204,0.15709 -0.0208,0.18005 -0.0204,0.20953 -0.0204,0.22863 -0.0208,0.25483 -0.0204,0.27698 -0.0208,0.29594 -0.0204,0.31855 -0.0208,0.337 -0.0204,0.35224 -0.0204,0.36704 -0.0208,0.38594 -0.0204,0.39333 -0.0208,0.40812 -0.0204,0.41595 -0.0208,0.42704 -0.0204,0.43072 -0.0204,0.43444 -0.0208,0.43442 -0.0204,0.44181 -0.0208,0.43441 -0.0204,0.43442 -0.0204,0.43074 -0.0208,0.42702 -0.0204,0.41598 -0.0208,0.40809 -0.0204,0.39333 -0.0208,0.38596 -0.0204,0.36702 -0.0204,0.35224 -0.0208,0.33702 -0.0204,0.31856 -0.0208,0.29591 -0.0204,0.27701 -0.0208,0.25482 -0.0204,0.22863 -0.0204,0.20953 -0.0208,0.18005 -0.0204,0.15685 -0.0208,0.13099 -0.0204,0.10102 -0.0208,0.079 -0.0204,0.0486 -0.0204,0.0193 -0.0208,-0.005 -0.0204,-0.0324 -0.0208,-0.0599 -0.0204,-0.0902 -0.0208,-0.11963 -0.0204,-0.14259 -0.0204,-0.16845 -0.0208,-0.19479 -0.0204,-0.22113 -0.0208,-0.23951 -0.0204,-0.26591 -0.0204,-0.28854 -0.0208,-0.30701 -0.0204,-0.32592 -0.0208,-0.34439 -0.0204,-0.36334 -0.0208,-0.37441 -0.0204,-0.38963 -0.0204,-0.40073 -0.0208,-0.41225 -0.0204,-0.42335 -0.0208,-0.42704 -0.0204,-0.43072 -0.0208,-0.43812 -0.0204,-0.43811 m 9.7e-4,-0.11818 v -1.7e-4 m -2.03869,1.7e-4 0.0204,-0.43811 0.0208,-0.43812 0.0204,-0.43071 0.0208,-0.42705 0.0204,-0.42334 0.0208,-0.41226 0.0204,-0.40072 0.0204,-0.38964 0.0208,-0.3744 0.0204,-0.36334 0.0208,-0.34439 0.0204,-0.32593 0.0208,-0.307 0.0204,-0.28854 0.0204,-0.26592 0.0208,-0.2395 0.0204,-0.22114 0.0208,-0.19479 0.0204,-0.16845 0.0204,-0.14259 0.0208,-0.11963 0.0204,-0.0901 0.0208,-0.0599 0.0204,-0.0324 0.0208,-0.005 0.0204,0.0193 0.0204,0.0483 0.0208,0.0785 0.0204,0.10103 0.0208,0.13123 0.0204,0.15733 0.0208,0.18005 0.0204,0.20953 0.0204,0.22863 0.0208,0.25485 0.0204,0.27699 0.0208,0.29593 0.0204,0.31853 0.0208,0.33702 0.0204,0.35225 0.0204,0.36701 0.0208,0.38596 0.0204,0.39333 0.0208,0.4081 0.0204,0.41597 0.0208,0.42702 0.0204,0.43074 0.0204,0.43442 0.0208,0.43442 0.0204,0.44181 0.0208,0.43444 0.0204,0.43441 0.0204,0.43072 0.0208,0.42704 0.0204,0.41596 0.0208,0.40812 0.0204,0.39333 0.0208,0.38593 0.0204,0.36704 0.0204,0.35224 0.0208,0.337 0.0204,0.31855 0.0208,0.29594 0.0204,0.27699 0.0208,0.25485 0.0204,0.22838 0.0204,0.20954 0.0208,0.18005 0.0204,0.15733 0.0208,0.13123 0.0204,0.10102 0.0208,0.0785 0.0204,0.0486 0.0204,0.0193 0.0208,-0.005 0.0204,-0.0324 0.0208,-0.0599 0.0204,-0.0901 0.0208,-0.11963 0.0204,-0.14259 0.0204,-0.16845 0.0208,-0.1948 0.0204,-0.22113 0.0208,-0.2395 0.0204,-0.26592 0.0204,-0.28854 0.0208,-0.307 0.0204,-0.32593 0.0208,-0.34442 0.0204,-0.36331 0.0208,-0.37441 0.0204,-0.38963 0.0204,-0.40073 0.0208,-0.41227 0.0204,-0.42333 0.0208,-0.42704 0.0204,-0.43074 0.0208,-0.43812 0.0204,-0.43811 m -2.0388,1e-4 v -2e-4 m -2.03869,2e-4 0.0204,-0.43812 0.0208,-0.43811 0.0204,-0.43074 0.0208,-0.42702 0.0204,-0.42335 0.0208,-0.41179 0.0204,-0.40073 0.0204,-0.38966 0.0208,-0.3744 0.0204,-0.36332 0.0208,-0.34487 0.0204,-0.32593 0.0208,-0.307 0.0204,-0.28854 0.0204,-0.26592 0.0208,-0.2395 0.0204,-0.22114 0.0208,-0.19479 0.0204,-0.16845 0.0204,-0.14259 0.0208,-0.11963 0.0204,-0.0899 0.0208,-0.0599 0.0204,-0.0324 0.0208,-0.005 0.0204,0.0193 0.0204,0.0486 0.0208,0.0785 0.0204,0.10102 0.0208,0.13099 0.0204,0.15685 0.0208,0.18005 0.0204,0.20953 0.0204,0.22863 0.0208,0.25483 0.0204,0.27698 0.0208,0.29594 0.0204,0.31855 0.0208,0.337 0.0204,0.35224 0.0204,0.36704 0.0208,0.38593 0.0204,0.39334 0.0208,0.40812 0.0204,0.41595 0.0208,0.42704 0.0204,0.43072 0.0204,0.43444 0.0208,0.43442 0.0204,0.44181 0.0208,0.43441 0.0204,0.43442 0.0204,0.43074 0.0208,0.42702 0.0204,0.41598 0.0208,0.40809 0.0204,0.39333 0.0208,0.38596 0.0204,0.36701 0.0204,0.35225 0.0208,0.33702 0.0204,0.31856 0.0208,0.29591 0.0204,0.27701 0.0208,0.25482 0.0204,0.22863 0.0204,0.20953 0.0208,0.18005 0.0204,0.15709 0.0208,0.13099 0.0204,0.10102 0.0208,0.079 0.0204,0.0486 0.0204,0.0193 0.0208,-0.005 0.0204,-0.0324 0.0208,-0.0599 0.0204,-0.0901 0.0208,-0.11963 0.0204,-0.14259 0.0204,-0.16845 0.0208,-0.19479 0.0204,-0.22113 0.0208,-0.23975 0.0204,-0.26592 0.0204,-0.28853 0.0208,-0.30701 0.0204,-0.32592 0.0208,-0.34485 0.0204,-0.36334 0.0208,-0.37441 0.0204,-0.38963 0.0204,-0.40073 0.0208,-0.41179 0.0204,-0.42335 0.0208,-0.42704 0.0204,-0.43072 0.0208,-0.43812 0.0204,-0.43811 m -2.02858,5e-5 1e-5,-1.5e-4 m -2.0387,1.5e-4 0.0204,-0.43814 0.0208,-0.43811 0.0204,-0.43072 0.0208,-0.42704 0.0204,-0.42335 0.0208,-0.41225 0.0204,-0.40073 0.0204,-0.38963 0.0208,-0.37441 0.0204,-0.36334 0.0208,-0.34439 0.0204,-0.32593 0.0208,-0.307 0.0204,-0.28854 0.0204,-0.26592 0.0208,-0.2395 0.0204,-0.22113 0.0208,-0.1948 0.0204,-0.16845 0.0204,-0.14259 0.0208,-0.11963 0.0204,-0.0901 0.0208,-0.0599 0.0204,-0.0324 0.0208,-0.005 0.0204,0.0193 0.0204,0.0483 0.0208,0.079 0.0204,0.10102 0.0208,0.13099 0.0204,0.15734 0.0208,0.18005 0.0204,0.20953 0.0204,0.22839 0.0208,0.25484 0.0204,0.27699 0.0208,0.29594 0.0204,0.31853 0.0208,0.33702 0.0204,0.35224 0.0204,0.36701 0.0208,0.38596 0.0204,0.39333 0.0208,0.40812 0.0204,0.41596 0.0208,0.42704 0.0204,0.43072 0.0204,0.43441 0.0208,0.43444 0.0204,0.44179 0.0208,0.43444 0.0204,0.43442 0.0204,0.43074 0.0208,0.42702 0.0204,0.41595 0.0208,0.40812 0.0204,0.39333 0.0208,0.38596 0.0204,0.36701 0.0204,0.35225 0.0208,0.33702 0.0204,0.31853 0.0208,0.29593 0.0204,0.27699 0.0208,0.25485 0.0204,0.22838 0.0204,0.20954 0.0208,0.18005 0.0204,0.15709 0.0208,0.13099 0.0204,0.10102 0.0208,0.0786 0.0204,0.0486 0.0204,0.0193 0.0208,-0.005 0.0204,-0.0324 0.0208,-0.0599 0.0204,-0.0901 0.0208,-0.11963 0.0204,-0.14259 0.0204,-0.16845 0.0208,-0.1948 0.0204,-0.22065 0.0208,-0.2395 0.0204,-0.26592 0.0204,-0.28854 0.0208,-0.307 0.0204,-0.32593 0.0208,-0.34485 0.0204,-0.36333 0.0208,-0.37441 0.0204,-0.38963 0.0204,-0.40073 0.0208,-0.41228 0.0204,-0.42332 0.0208,-0.42705 0.0204,-0.43074 0.0208,-0.43811 0.0204,-0.43811 m -2.0477,0 v -1.3e-4 m -2.03869,1.3e-4 0.0204,-0.43812 0.0208,-0.43811 0.0204,-0.43072 0.0208,-0.42704 0.0204,-0.42335 0.0208,-0.41225 0.0204,-0.40073 0.0204,-0.38963 0.0208,-0.37441 0.0204,-0.36334 0.0208,-0.34439 0.0204,-0.32595 0.0208,-0.307 0.0204,-0.28854 0.0204,-0.2659 0.0208,-0.2395 0.0204,-0.22113 0.0208,-0.1948 0.0204,-0.16844 0.0204,-0.14259 0.0208,-0.11964 0.0204,-0.0901 0.0208,-0.0599 0.0204,-0.0324 0.0208,-0.005 0.0204,0.0193 0.0204,0.0486 0.0208,0.0785 0.0204,0.10102 0.0208,0.13099 0.0204,0.15733 0.0208,0.18005 0.0204,0.20954 0.0204,0.22863 0.0208,0.25482 0.0204,0.27701 0.0208,0.29591 0.0204,0.31856 0.0208,0.33702 0.0204,0.35224 0.0204,0.36701 0.0208,0.38596 0.0204,0.39333 0.0208,0.4081 0.0204,0.41595 0.0208,0.42705 0.0204,0.43074 0.0204,0.43441 0.0208,0.43442 0.0204,0.44181 0.0208,0.43442 0.0204,0.43444 0.0204,0.43071 0.0208,0.42705 0.0204,0.41595 0.0208,0.4081 0.0204,0.39335 0.0208,0.38594 0.0204,0.36703 0.0204,0.35225 0.0208,0.33699 0.0204,0.31856 0.0208,0.29593 0.0204,0.27699 0.0208,0.25483 0.0204,0.22862 0.0204,0.20954 0.0208,0.18005 0.0204,0.15709 0.0208,0.13099 0.0204,0.10102 0.0208,0.0785 0.0204,0.0486 0.0204,0.0193 0.0208,-0.005 0.0204,-0.0324 0.0208,-0.0599 0.0204,-0.0902 0.0208,-0.11963 0.0204,-0.14259 0.0204,-0.16844 0.0208,-0.1948 0.0204,-0.22065 0.0208,-0.2395 0.0204,-0.26592 0.0204,-0.28854 0.0208,-0.307 0.0204,-0.32593 0.0208,-0.34441 0.0204,-0.36332 0.0208,-0.3744 0.0204,-0.38966 0.0204,-0.4007 0.0208,-0.41228 0.0204,-0.42335 0.0208,-0.42702 0.0204,-0.43074 0.0208,-0.43811 0.0204,-0.43812 m -2.03879,0 v -1.4e-4 m -2.03869,1.4e-4 0.0204,-0.43811 0.0208,-0.43811 0.0204,-0.43075 0.0208,-0.42702 0.0204,-0.42334 0.0208,-0.4118 0.0204,-0.40072 0.0204,-0.38966 0.0208,-0.37441 0.0204,-0.36331 0.0208,-0.34439 0.0204,-0.32595 0.0208,-0.30701 0.0204,-0.28854 0.0204,-0.26591 0.0208,-0.23951 0.0204,-0.22113 0.0208,-0.19479 0.0204,-0.16845 0.0204,-0.14259 0.0208,-0.11963 0.0204,-0.0902 0.0208,-0.0599 0.0204,-0.0324 0.0208,-0.005 0.0204,0.0193 0.0204,0.0486 0.0208,0.079 0.0204,0.10102 0.0208,0.13099 0.0204,0.15733 0.0208,0.18005 0.0204,0.20953 0.0204,0.22863 0.0208,0.25483 0.0204,0.27701 0.0208,0.29591 0.0204,0.31855 0.0208,0.33702 0.0204,0.35225 0.0204,0.36701 0.0208,0.38596 0.0204,0.39333 0.0208,0.4081 0.0204,0.41595 0.0208,0.42704 0.0204,0.43074 0.0204,0.43442 0.0208,0.43442 0.0204,0.44181 0.0208,0.43441 0.0204,0.43444 0.0204,0.43072 0.0208,0.42704 0.0204,0.41596 0.0208,0.40809 0.0204,0.39336 0.0208,0.38593 0.0204,0.36701 0.0204,0.35227 0.0208,0.337 0.0204,0.31855 0.0208,0.29592 0.0204,0.27701 0.0208,0.25482 0.0204,0.22863 0.0204,0.20953 0.0208,0.18005 0.0204,0.15685 0.0208,0.13099 0.0204,0.10102 0.0208,0.0786 0.0204,0.0486 0.0204,0.0193 0.0208,-0.005 0.0204,-0.0324 0.0208,-0.0599 0.0204,-0.0901 0.0208,-0.11963 0.0204,-0.14259 0.0204,-0.16845 0.0208,-0.19479 0.0204,-0.22066 0.0208,-0.2395 0.0204,-0.26592 0.0204,-0.28853 0.0208,-0.30701 0.0204,-0.32592 0.0208,-0.34442 0.0204,-0.36331 0.0208,-0.37441 0.0204,-0.38966 0.0204,-0.4007 0.0208,-0.41228 0.0204,-0.42334 0.0208,-0.42702 0.0204,-0.43075 0.0208,-0.43811 0.0204,-0.43811 m -2.02857,-0.21896 v -1.2e-4 m -2.03869,1.2e-4 0.0204,-0.43812 0.0208,-0.43811 0.0204,-0.43072 0.0208,-0.42704 0.0204,-0.42335 0.0208,-0.41179 0.0204,-0.40073 0.0204,-0.38963 0.0208,-0.37441 0.0204,-0.36334 0.0208,-0.34485 0.0204,-0.32592 0.0208,-0.30701 0.0204,-0.28854 0.0204,-0.26591 0.0208,-0.23951 0.0204,-0.22113 0.0208,-0.19479 0.0204,-0.16845 0.0204,-0.14259 0.0208,-0.11963 0.0204,-0.0902 0.0208,-0.0599 0.0204,-0.0324 0.0208,-0.005 0.0204,0.0193 0.0204,0.0483 0.0208,0.0785 0.0204,0.10102 0.0208,0.13099 0.0204,0.15733 0.0208,0.18005 0.0204,0.20954 0.0204,0.22862 0.0208,0.25485 0.0204,0.27699 0.0208,0.29594 0.0204,0.31853 0.0208,0.33702 0.0204,0.35224 0.0204,0.36701 0.0208,0.38596 0.0204,0.39333 0.0208,0.4081 0.0204,0.41598 0.0208,0.42702 0.0204,0.43074 0.0204,0.43441 0.0208,0.43442 0.0204,0.44181 0.0208,0.43444 0.0204,0.43442 0.0204,0.43071 0.0208,0.42705 0.0204,0.41595 0.0208,0.40812 0.0204,0.39333 0.0208,0.38594 0.0204,0.36703 0.0204,0.35225 0.0208,0.33699 0.0204,0.31856 0.0208,0.29593 0.0204,0.27699 0.0208,0.25485 0.0204,0.22838 0.0204,0.20954 0.0208,0.18005 0.0204,0.15733 0.0208,0.13123 0.0204,0.10102 0.0208,0.0786 0.0204,0.0486 0.0204,0.0193 0.0208,-0.005 0.0204,-0.0324 0.0208,-0.0599 0.0204,-0.0902 0.0208,-0.11963 0.0204,-0.14211 0.0204,-0.16845 0.0208,-0.19479 0.0204,-0.22113 0.0208,-0.23951 0.0204,-0.26591 0.0204,-0.28854 0.0208,-0.30701 0.0204,-0.32592 0.0208,-0.34439 0.0204,-0.36334 0.0208,-0.37441 0.0204,-0.38963 0.0204,-0.40073 0.0208,-0.41179 0.0204,-0.42335 0.0208,-0.42704 0.0204,-0.43072 0.0208,-0.43812 0.0204,-0.43813 m -6.08555,0.2192 -0.0204,-0.43811 -0.0208,-0.43812 -0.0204,-0.43074 -0.0208,-0.42702 -0.0204,-0.42335 -0.0208,-0.41179 -0.0204,-0.40073 -0.0204,-0.38965 -0.0208,-0.37441 -0.0204,-0.36332 -0.0208,-0.34487 -0.0204,-0.32593 -0.0208,-0.307 -0.0204,-0.28854 -0.0204,-0.26592 -0.0208,-0.2395 -0.0204,-0.22113 -0.0208,-0.1948 -0.0204,-0.16845 -0.0204,-0.14259 -0.0208,-0.11963 -0.0204,-0.0899 -0.0208,-0.0599 -0.0204,-0.0324 -0.0208,-0.005 -0.0204,0.0193 -0.0204,0.0486 -0.0208,0.0785 -0.0204,0.10102 -0.0208,0.13099 -0.0204,0.15685 -0.0208,0.18005 -0.0204,0.20954 -0.0204,0.22862 -0.0208,0.25483 -0.0204,0.27698 -0.0208,0.29594 -0.0204,0.31855 -0.0208,0.337 -0.0204,0.35224 -0.0204,0.36704 -0.0208,0.38594 -0.0204,0.39333 -0.0208,0.40812 -0.0204,0.41595 -0.0208,0.42704 -0.0204,0.43072 -0.0204,0.43444 -0.0208,0.43442 -0.0204,0.44181 -0.0208,0.43441 -0.0204,0.43442 -0.0204,0.43074 -0.0208,0.42702 -0.0204,0.41598 -0.0208,0.40809 -0.0204,0.39334 -0.0208,0.38595 -0.0204,0.36702 -0.0204,0.35224 -0.0208,0.33702 -0.0204,0.31856 -0.0208,0.29591 -0.0204,0.27701 -0.0208,0.25482 -0.0204,0.22863 -0.0204,0.20953 -0.0208,0.18005 -0.0204,0.15709 -0.0208,0.13099 -0.0204,0.10103 -0.0208,0.0785 -0.0204,0.0483 -0.0204,0.0193 -0.0208,-0.005 -0.0204,-0.0324 -0.0208,-0.0599 -0.0204,-0.0901 -0.0208,-0.11963 -0.0204,-0.14259 -0.0204,-0.16845 -0.0208,-0.19479 -0.0204,-0.22114 -0.0208,-0.2395 -0.0204,-0.26592 -0.0204,-0.28854 -0.0208,-0.307 -0.0204,-0.32593 -0.0208,-0.34485 -0.0204,-0.36333 -0.0208,-0.37441 -0.0204,-0.38963 -0.0204,-0.40073 -0.0208,-0.41225 -0.0204,-0.42335 -0.0208,-0.42705 -0.0204,-0.43071 -0.0208,-0.43812 -0.0106,-0.43813 -0.0106,0.43813 -0.0208,0.43812 -0.0204,0.43071 -0.0208,0.42705 -0.0204,0.42335 -0.0208,0.41179 -0.0204,0.40073 -0.0204,0.38963 -0.0208,0.37441 -0.0204,0.36333 -0.0208,0.34485 -0.0204,0.32593 -0.0208,0.307 -0.0204,0.28854 -0.0204,0.26592 -0.0208,0.2395 -0.0204,0.22114 -0.0208,0.19479 -0.0204,0.16845 -0.0204,0.14259 -0.0208,0.11963 -0.0204,0.0902 -0.0208,0.0599 -0.0204,0.0324 -0.0208,0.005 -0.0204,-0.0193 -0.0204,-0.0483 -0.0208,-0.0785 -0.0204,-0.10103 -0.0208,-0.13098 -0.0204,-0.15734 -0.0208,-0.18005 -0.0204,-0.20953 -0.0204,-0.22839 -0.0208,-0.25485 -0.0204,-0.27698 -0.0208,-0.29594 -0.0204,-0.31853 -0.0208,-0.33702 -0.0204,-0.35224 -0.0204,-0.36701 -0.0208,-0.38596 -0.0204,-0.39333 -0.0208,-0.40813 -0.0204,-0.41595 -0.0208,-0.42702 -0.0204,-0.43074 -0.0204,-0.43442 -0.0208,-0.43441 -0.0204,-0.44181 -0.0208,-0.43444 -0.0204,-0.43442 -0.0204,-0.43072 -0.0208,-0.42704 -0.0204,-0.41595 -0.0208,-0.40812 -0.0204,-0.39333 -0.0208,-0.38594 -0.0204,-0.36703 -0.0204,-0.35225 -0.0208,-0.33702 -0.0204,-0.31853 -0.0208,-0.29593 -0.0204,-0.27699 -0.0208,-0.25485 -0.0204,-0.22839 -0.0204,-0.20953 -0.0208,-0.18005 -0.0204,-0.15733 -0.0208,-0.13099 -0.0204,-0.10102 -0.0208,-0.0786 -0.0204,-0.0486 -0.0204,-0.0193 -0.0208,0.005 -0.0204,0.0324 -0.0208,0.0599 -0.0204,0.0902 -0.0208,0.11963 -0.0204,0.14259 -0.0204,0.16845 -0.0208,0.19479 -0.0204,0.22114 -0.0208,0.2395 -0.0204,0.26592 -0.0204,0.28854 -0.0208,0.307 -0.0204,0.32593 -0.0208,0.34439 -0.0204,0.36334 -0.0208,0.3744 -0.0204,0.38964 -0.0204,0.40072 -0.0208,0.4118 -0.0204,0.42334 -0.0208,0.42705 -0.0204,0.43072 -0.0208,0.43811 -0.0204,0.43814 m 4.05792,-5e-5 v -1.5e-4 m 2.03869,1.5e-4 -0.0204,-0.43812 -0.0208,-0.43813 -0.0204,-0.43072 -0.0208,-0.42705 -0.0204,-0.42332 -0.0208,-0.41228 -0.0204,-0.40072 -0.0204,-0.38963 -0.0208,-0.37441 -0.0204,-0.36334 -0.0208,-0.34439 -0.0204,-0.32593 -0.0208,-0.307 -0.0204,-0.28854 -0.0204,-0.26592 -0.0208,-0.2395 -0.0204,-0.22114 -0.0208,-0.19479 -0.0204,-0.16845 -0.0204,-0.14259 -0.0208,-0.11963 -0.0204,-0.0901 -0.0208,-0.0599 -0.0204,-0.0324 -0.0208,-0.005 -0.0204,0.0193 -0.0204,0.0486 -0.0208,0.079 -0.0204,0.10102 -0.0208,0.13123 -0.0204,0.15734 -0.0208,0.18005 -0.0204,0.20953 -0.0204,0.22839 -0.0208,0.25485 -0.0204,0.27698 -0.0208,0.29594 -0.0204,0.31853 -0.0208,0.33702 -0.0204,0.35224 -0.0204,0.36704 -0.0208,0.38593 -0.0204,0.39333 -0.0208,0.40813 -0.0204,0.41595 -0.0208,0.42704 -0.0204,0.43072 -0.0204,0.43442 -0.0208,0.43444 -0.0204,0.44181 -0.0208,0.43441 -0.0204,0.43442 -0.0204,0.43074 -0.0208,0.42702 -0.0204,0.41598 -0.0208,0.40809 -0.0204,0.39333 -0.0208,0.38596 -0.0204,0.36701 -0.0204,0.35225 -0.0208,0.33702 -0.0204,0.31853 -0.0208,0.29594 -0.0204,0.27698 -0.0208,0.25485 -0.0204,0.22863 -0.0204,0.20953 -0.0208,0.18005 -0.0204,0.15733 -0.0208,0.13099 -0.0204,0.10103 -0.0208,0.079 -0.0204,0.0486 -0.0204,0.0193 -0.0208,-0.005 -0.0204,-0.0324 -0.0208,-0.0599 -0.0204,-0.0901 -0.0208,-0.11964 -0.0204,-0.14259 -0.0204,-0.16844 -0.0208,-0.1948 -0.0204,-0.22113 -0.0208,-0.23975 -0.0204,-0.26591 -0.0204,-0.28852 -0.0208,-0.30703 -0.0204,-0.32592 -0.0208,-0.34439 -0.0204,-0.36334 -0.0208,-0.37441 -0.0204,-0.38963 -0.0204,-0.40073 -0.0208,-0.41225 -0.0204,-0.42335 -0.0208,-0.42704 -0.0204,-0.43072 -0.0208,-0.43811 -0.0204,-0.43812 m 2.02857,-0.2192 v -1.4e-4 m 2.0387,1.4e-4 -0.0204,-0.43811 -0.0208,-0.43812 -0.0204,-0.43074 -0.0208,-0.42702 -0.0204,-0.42335 -0.0208,-0.41179 -0.0204,-0.40073 -0.0204,-0.38965 -0.0208,-0.37441 -0.0204,-0.36331 -0.0208,-0.34439 -0.0204,-0.32596 -0.0208,-0.307 -0.0204,-0.28854 -0.0204,-0.26592 -0.0208,-0.2395 -0.0204,-0.22113 -0.0208,-0.1948 -0.0204,-0.16844 -0.0204,-0.14259 -0.0208,-0.12012 -0.0204,-0.0899 -0.0208,-0.0599 -0.0204,-0.0324 -0.0208,-0.01 -0.0204,0.0193 -0.0204,0.0486 -0.0208,0.0786 -0.0204,0.10102 -0.0208,0.13123 -0.0204,0.15685 -0.0208,0.18005 -0.0204,0.20953 -0.0204,0.22863 -0.0208,0.25482 -0.0204,0.27699 -0.0208,0.29593 -0.0204,0.31856 -0.0208,0.337 -0.0204,0.35224 -0.0204,0.36704 -0.0208,0.38593 -0.0204,0.39333 -0.0208,0.40812 -0.0204,0.41596 -0.0208,0.42704 -0.0204,0.43072 -0.0204,0.43444 -0.0208,0.43441 -0.0204,0.44181 -0.0208,0.43442 -0.0204,0.43442 -0.0204,0.43074 -0.0208,0.42702 -0.0204,0.41597 -0.0208,0.4081 -0.0204,0.39333 -0.0208,0.38596 -0.0204,0.36701 -0.0204,0.35225 -0.0208,0.33702 -0.0204,0.31855 -0.0208,0.29591 -0.0204,0.27701 -0.0208,0.25483 -0.0204,0.22863 -0.0204,0.20953 -0.0208,0.18005 -0.0204,0.15685 -0.0208,0.13123 -0.0204,0.10102 -0.0208,0.0785 -0.0204,0.0483 -0.0204,0.0193 -0.0208,-0.005 -0.0204,-0.0324 -0.0208,-0.0599 -0.0204,-0.0901 -0.0208,-0.11963 -0.0204,-0.14259 -0.0204,-0.16845 -0.0208,-0.1948 -0.0204,-0.22113 -0.0208,-0.2395 -0.0204,-0.26592 -0.0204,-0.28854 -0.0208,-0.307 -0.0204,-0.32593 -0.0208,-0.34439 -0.0204,-0.36334 -0.0208,-0.37441 -0.0204,-0.38963 -0.0204,-0.40072 -0.0208,-0.4118 -0.0204,-0.42335 -0.0208,-0.42704 -0.0204,-0.43072 -0.0208,-0.43811 -0.0204,-0.43812 m -6.08631,0.21872 v -1.4e-4 m -2.03869,1.4e-4 0.0204,-0.43811 0.0208,-0.43811 0.0204,-0.43075 0.0208,-0.42702 0.0204,-0.42334 0.0208,-0.41226 0.0204,-0.40072 0.0204,-0.38966 0.0208,-0.37441 0.0204,-0.36331 0.0208,-0.34439 0.0204,-0.32595 0.0208,-0.30701 0.0204,-0.28853 0.0204,-0.26592 0.0208,-0.23951 0.0204,-0.22113 0.0208,-0.19479 0.0204,-0.16845 0.0204,-0.14211 0.0208,-0.11963 0.0204,-0.0901 0.0208,-0.0599 0.0204,-0.0324 0.0208,-0.01 0.0204,0.0193 0.0204,0.0486 0.0208,0.079 0.0204,0.10102 0.0208,0.13099 0.0204,0.15709 0.0208,0.18005 0.0204,0.20953 0.0204,0.22863 0.0208,0.25482 0.0204,0.27702 0.0208,0.29591 0.0204,0.31855 0.0208,0.33702 0.0204,0.35225 0.0204,0.36701 0.0208,0.38596 0.0204,0.39333 0.0208,0.40809 0.0204,0.41596 0.0208,0.42704 0.0204,0.43074 0.0204,0.43442 0.0208,0.43441 0.0204,0.44182 0.0208,0.43441 0.0204,0.43444 0.0204,0.43072 0.0208,0.42704 0.0204,0.41595 0.0208,0.4081 0.0204,0.39336 0.0208,0.38593 0.0204,0.36701 0.0204,0.35227 0.0208,0.337 0.0204,0.31855 0.0208,0.29591 0.0204,0.27701 0.0208,0.25483 0.0204,0.22863 0.0204,0.20953 0.0208,0.18005 0.0204,0.15685 0.0208,0.13099 0.0204,0.10102 0.0208,0.0786 0.0204,0.0486 0.0204,0.0193 0.0208,-0.005 0.0204,-0.0324 0.0208,-0.0599 0.0204,-0.0901 0.0208,-0.11963 0.0204,-0.14259 0.0204,-0.16845 0.0208,-0.19479 0.0204,-0.22114 0.0208,-0.2395 0.0204,-0.26592 0.0204,-0.28854 0.0208,-0.307 0.0204,-0.32595 0.0208,-0.34439 0.0204,-0.36332 0.0208,-0.37441 0.0204,-0.38965 0.0204,-0.40073 0.0208,-0.41179 0.0204,-0.42335 0.0208,-0.42702 0.0204,-0.43074 0.0208,-0.43812 0.0204,-0.43811 m -2.02858,-0.21896 v -1.7e-4 m -2.03869,1.7e-4 0.0204,-0.43811 0.0208,-0.43812 0.0204,-0.43071 0.0208,-0.42705 0.0204,-0.42334 0.0208,-0.4118 0.0204,-0.40073 0.0204,-0.38963 0.0208,-0.37441 0.0204,-0.36333 0.0208,-0.34485 0.0204,-0.32593 0.0208,-0.307 0.0204,-0.28854 0.0204,-0.26592 0.0208,-0.2395 0.0204,-0.22114 0.0208,-0.19479 0.0204,-0.16845 0.0204,-0.14259 0.0208,-0.11963 0.0204,-0.0901 0.0208,-0.0599 0.0204,-0.0324 0.0208,-0.01 0.0204,0.0193 0.0204,0.0486 0.0208,0.0785 0.0204,0.10102 0.0208,0.13099 0.0204,0.15734 0.0208,0.18005 0.0204,0.20953 0.0204,0.22863 0.0208,0.25485 0.0204,0.27698 0.0208,0.29594 0.0204,0.31853 0.0208,0.33702 0.0204,0.35224 0.0204,0.36702 0.0208,0.38595 0.0204,0.39334 0.0208,0.40809 0.0204,0.41598 0.0208,0.42702 0.0204,0.43074 0.0204,0.43442 0.0208,0.43441 0.0204,0.44181 0.0208,0.43444 0.0204,0.43442 0.0204,0.43072 0.0208,0.42704 0.0204,0.41595 0.0208,0.40812 0.0204,0.39333 0.0208,0.38594 0.0204,0.36704 0.0204,0.35224 0.0208,0.337 0.0204,0.31855 0.0208,0.29594 0.0204,0.27698 0.0208,0.25485 0.0204,0.22839 0.0204,0.20953 0.0208,0.18005 0.0204,0.15685 0.0208,0.13123 0.0204,0.10102 0.0208,0.079 0.0204,0.0486 0.0204,0.0193 0.0208,-0.005 0.0204,-0.0324 0.0208,-0.0599 0.0204,-0.0901 0.0208,-0.11963 0.0204,-0.14259 0.0204,-0.16845 0.0208,-0.19479 0.0204,-0.22065 0.0208,-0.2395 0.0204,-0.26592 0.0204,-0.28854 0.0208,-0.307 0.0204,-0.32593 0.0208,-0.34439 0.0204,-0.36334 0.0208,-0.37441 0.0204,-0.38963 0.0204,-0.40073 0.0208,-0.41179 0.0204,-0.42335 0.0208,-0.42704 0.0204,-0.43072 0.0208,-0.43814 0.0204,-0.43811" /><path
       style="fill:none;stroke:#000000;stroke-width:0.529167;stroke-linecap:square;stroke-linejoin:round;stroke-dasharray:none"
       d="M -36.685446,149.26712 H 27.207181"
       id="path31" /><circle
       style="fill:#000000;stroke:#000000;stroke-width:0.529165;stroke-linecap:square;stroke-linejoin:round;stroke-dasharray:none"
       id="path32"
       cx="-36.950027"
       cy="149.53171"
       r="1.1339285" /><path
       style="fill:#008000;stroke:#008000;stroke-width:0.529167;stroke-linecap:square;stroke-linejoin:round;stroke-dasharray:none;marker-end:url(#TriangleOutM-6-6)"
       d="m -24.833291,169.23564 -9.125881,-15.80649"
       id="path33" /><text
       xml:space="preserve"
       style="font-style:normal;font-variant:normal;font-weight:normal;font-stretch:normal;font-size:5.07168px;line-height:1.25;font-family:ubuntu;-inkscape-font-specification:ubuntu;text-align:center;letter-spacing:0px;word-spacing:0px;text-anchor:middle;fill:#0000ff;fill-opacity:1;stroke:none;stroke-width:0.31698"
       x="-6.7417283"
       y="126.27434"
       id="text34"
       inkscape:export-filename="/home/obijuan/develop/digital-electronics-with-open-FPGAs-tutorial/wiki/Tutorial-30/intro-03.png"
       inkscape:export-xdpi="90"
       inkscape:export-ydpi="90"><tspan
         sodipodi:role="line"
         x="-6.7417274"
         y="126.27434"
         style="font-style:normal;font-variant:normal;font-weight:500;font-stretch:normal;font-family:ubuntu;-inkscape-font-specification:'ubuntu Medium';fill:#0000ff;stroke:none;stroke-width:0.31698"
         id="tspan34">Seal de datos</tspan><tspan
         sodipodi:role="line"
         x="-6.7417283"
         y="132.61394"
         style="font-style:normal;font-variant:normal;font-weight:500;font-stretch:normal;font-family:ubuntu;-inkscape-font-specification:'ubuntu Medium';fill:#0000ff;stroke:none;stroke-width:0.31698"
         id="tspan35">(Digital)</tspan></text><text
       xml:space="preserve"
       style="font-style:normal;font-variant:normal;font-weight:normal;font-stretch:normal;font-size:5.07168px;line-height:1.25;font-family:ubuntu;-inkscape-font-specification:ubuntu;text-align:center;letter-spacing:0px;word-spacing:0px;text-anchor:middle;fill:#000000;fill-opacity:1;stroke:none;stroke-width:0.31698"
       x="-46.297619"
       y="140.57326"
       id="text37"
       inkscape:export-filename="/home/obijuan/develop/digital-electronics-with-open-FPGAs-tutorial/wiki/Tutorial-30/intro-03.png"
       inkscape:export-xdpi="90"
       inkscape:export-ydpi="90"><tspan
         sodipodi:role="line"
         x="-46.297619"
         y="140.57326"
         style="font-style:normal;font-variant:normal;font-weight:bold;font-stretch:normal;font-family:Ubuntu;-inkscape-font-specification:'Ubuntu Bold';fill:#000000;stroke:none;stroke-width:0.31698"
         id="tspan37">PC</tspan></text><text
       xml:space="preserve"
       style="font-style:normal;font-variant:normal;font-weight:normal;font-stretch:normal;font-size:5.07168px;line-height:1.25;font-family:ubuntu;-inkscape-font-specification:ubuntu;text-align:center;letter-spacing:0px;word-spacing:0px;text-anchor:middle;fill:#000000;fill-opacity:1;stroke:none;stroke-width:0.31698"
       x="38.527515"
       y="150.96761"
       id="text38"
       inkscape:export-filename="/home/obijuan/develop/digital-electronics-with-open-FPGAs-tutorial/wiki/Tutorial-30/intro-03.png"
       inkscape:export-xdpi="90"
       inkscape:export-ydpi="90"><tspan
         sodipodi:role="line"
         x="38.527515"
         y="150.96761"
         style="font-style:normal;font-variant:normal;font-weight:bold;font-stretch:normal;font-family:Ubuntu;-inkscape-font-specification:'Ubuntu Bold';fill:#000000;stroke:none;stroke-width:0.31698"
         id="tspan38">Mdem</tspan></text><text
       xml:space="preserve"
       style="font-style:normal;font-variant:normal;font-weight:normal;font-stretch:normal;font-size:5.07168px;line-height:1.25;font-family:ubuntu;-inkscape-font-specification:ubuntu;text-align:center;letter-spacing:0px;word-spacing:0px;text-anchor:middle;fill:#000000;fill-opacity:1;stroke:none;stroke-width:0.31698"
       x="-4.7619576"
       y="156.34692"
       id="text40"
       inkscape:export-filename="/home/obijuan/develop/digital-electronics-with-open-FPGAs-tutorial/wiki/Tutorial-30/intro-03.png"
       inkscape:export-xdpi="90"
       inkscape:export-ydpi="90"><tspan
         sodipodi:role="line"
         x="-4.7619581"
         y="156.34692"
         style="font-style:normal;font-variant:normal;font-weight:500;font-stretch:normal;font-family:ubuntu;-inkscape-font-specification:'ubuntu Medium';fill:#000000;stroke:none;stroke-width:0.31698"
         id="tspan40">RS-232 (TX)</tspan></text><text
       xml:space="preserve"
       style="font-style:normal;font-variant:normal;font-weight:normal;font-stretch:normal;font-size:5.07168px;line-height:1.25;font-family:ubuntu;-inkscape-font-specification:ubuntu;text-align:center;letter-spacing:0px;word-spacing:0px;text-anchor:middle;fill:#008000;fill-opacity:1;stroke:none;stroke-width:0.31698"
       x="172.55409"
       y="173.18015"
       id="text42"
       inkscape:export-filename="/home/obijuan/develop/digital-electronics-with-open-FPGAs-tutorial/wiki/Tutorial-30/intro-03.png"
       inkscape:export-xdpi="90"
       inkscape:export-ydpi="90"><tspan
         sodipodi:role="line"
         x="172.55409"
         y="173.18015"
         style="font-style:normal;font-variant:normal;font-weight:500;font-stretch:normal;font-family:ubuntu;-inkscape-font-specification:'ubuntu Medium';fill:#008000;stroke:none;stroke-width:0.31698"
         id="tspan41">Puerto</tspan><tspan
         sodipodi:role="line"
         x="172.55409"
         y="179.51974"
         style="font-style:normal;font-variant:normal;font-weight:500;font-stretch:normal;font-family:ubuntu;-inkscape-font-specification:'ubuntu Medium';fill:#008000;stroke:none;stroke-width:0.31698"
         id="tspan42">Serie</tspan></text><rect
       style="fill:#f2f2f2;stroke:#1a1a1a;stroke-width:0.529167;stroke-miterlimit:4;stroke-dasharray:none;stroke-dashoffset:0;stroke-opacity:1"
       id="rect42"
       width="22.615311"
       height="10.597567"
       x="-127.05641"
       y="143.96834"
       inkscape:export-xdpi="90"
       inkscape:export-ydpi="90"
       inkscape:export-filename="/home/obijuan/develop/digital-electronics-with-open-FPGAs-tutorial/wiki/Tutorial-30/intro-03.png"
       transform="scale(-1,1)" /><path
       style="fill:none;stroke:#000000;stroke-width:0.529167;stroke-linecap:square;stroke-linejoin:round;stroke-dasharray:none"
       d="M 185.60275,149.26712 H 127.05642"
       id="path43" /><circle
       style="fill:#000000;stroke:#000000;stroke-width:0.529165;stroke-linecap:square;stroke-linejoin:round;stroke-dasharray:none"
       id="circle43"
       cx="185.60275"
       cy="149.53171"
       r="1.1339285" /><path
       style="fill:#008000;stroke:#008000;stroke-width:0.529167;stroke-linecap:square;stroke-linejoin:round;stroke-dasharray:none;marker-end:url(#TriangleOutM-6-6)"
       d="m 173.63509,168.43383 9.12588,-15.80649"
       id="path44" /><text
       xml:space="preserve"
       style="font-style:normal;font-variant:normal;font-weight:normal;font-stretch:normal;font-size:5.07168px;line-height:1.25;font-family:ubuntu;-inkscape-font-specification:ubuntu;text-align:center;letter-spacing:0px;word-spacing:0px;text-anchor:middle;fill:#000000;fill-opacity:1;stroke:none;stroke-width:0.31698"
       x="194.75444"
       y="137.6911"
       id="text46"
       inkscape:export-filename="/home/obijuan/develop/digital-electronics-with-open-FPGAs-tutorial/wiki/Tutorial-30/intro-03.png"
       inkscape:export-xdpi="90"
       inkscape:export-ydpi="90"><tspan
         sodipodi:role="line"
         x="194.75444"
         y="137.6911"
         style="font-style:normal;font-variant:normal;font-weight:bold;font-stretch:normal;font-family:Ubuntu;-inkscape-font-specification:'Ubuntu Bold';fill:#000000;stroke:none;stroke-width:0.31698"
         id="tspan46">PC</tspan></text><text
       xml:space="preserve"
       style="font-style:normal;font-variant:normal;font-weight:normal;font-stretch:normal;font-size:5.07168px;line-height:1.25;font-family:ubuntu;-inkscape-font-specification:ubuntu;text-align:center;letter-spacing:0px;word-spacing:0px;text-anchor:middle;fill:#000000;fill-opacity:1;stroke:none;stroke-width:0.31698"
       x="156.61487"
       y="156.27379"
       id="text48"
       inkscape:export-filename="/home/obijuan/develop/digital-electronics-with-open-FPGAs-tutorial/wiki/Tutorial-30/intro-03.png"
       inkscape:export-xdpi="90"
       inkscape:export-ydpi="90"><tspan
         sodipodi:role="line"
         x="156.61487"
         y="156.27379"
         style="font-style:normal;font-variant:normal;font-weight:500;font-stretch:normal;font-family:ubuntu;-inkscape-font-specification:'ubuntu Medium';fill:#000000;stroke:none;stroke-width:0.31698"
         id="tspan48">RS-232 (RX)</tspan></text><path
       style="fill:none;stroke:#000000;stroke-width:0.529167;stroke-linecap:square;stroke-linejoin:round;stroke-dasharray:none"
       d="M 49.782319,149.26711 H 104.4411"
       id="path48" /><text
       xml:space="preserve"
       style="font-style:normal;font-variant:normal;font-weight:normal;font-stretch:normal;font-size:5.07168px;line-height:1.25;font-family:ubuntu;-inkscape-font-specification:ubuntu;text-align:center;letter-spacing:0px;word-spacing:0px;text-anchor:middle;fill:#000000;fill-opacity:1;stroke:none;stroke-width:0.31698"
       x="115.72126"
       y="150.96761"
       id="text49"
       inkscape:export-filename="/home/obijuan/develop/digital-electronics-with-open-FPGAs-tutorial/wiki/Tutorial-30/intro-03.png"
       inkscape:export-xdpi="90"
       inkscape:export-ydpi="90"><tspan
         sodipodi:role="line"
         x="115.72126"
         y="150.96761"
         style="font-style:normal;font-variant:normal;font-weight:bold;font-stretch:normal;font-family:Ubuntu;-inkscape-font-specification:'Ubuntu Bold';fill:#000000;stroke:none;stroke-width:0.31698"
         id="tspan49">Mdem</tspan></text><text
       xml:space="preserve"
       style="font-style:normal;font-variant:normal;font-weight:normal;font-stretch:normal;font-size:5.07168px;line-height:1.25;font-family:ubuntu;-inkscape-font-specification:ubuntu;text-align:center;letter-spacing:0px;word-spacing:0px;text-anchor:middle;fill:#000000;fill-opacity:1;stroke:none;stroke-width:0.31698"
       x="77.108971"
       y="156.34692"
       id="text50"
       inkscape:export-filename="/home/obijuan/develop/digital-electronics-with-open-FPGAs-tutorial/wiki/Tutorial-30/intro-03.png"
       inkscape:export-xdpi="90"
       inkscape:export-ydpi="90"><tspan
         sodipodi:role="line"
         x="77.108971"
         y="156.34692"
         style="font-style:normal;font-variant:normal;font-weight:500;font-stretch:normal;font-family:ubuntu;-inkscape-font-specification:'ubuntu Medium';fill:#000000;stroke:none;stroke-width:0.31698"
         id="tspan50">Lnea</tspan><tspan
         sodipodi:role="line"
         x="77.108971"
         y="162.68652"
         style="font-style:normal;font-variant:normal;font-weight:500;font-stretch:normal;font-family:ubuntu;-inkscape-font-specification:'ubuntu Medium';fill:#000000;stroke:none;stroke-width:0.31698"
         id="tspan51">telefnica</tspan></text><text
       xml:space="preserve"
       style="font-style:normal;font-variant:normal;font-weight:normal;font-stretch:normal;font-size:5.07168px;line-height:1.25;font-family:ubuntu;-inkscape-font-specification:ubuntu;text-align:center;letter-spacing:0px;word-spacing:0px;text-anchor:middle;fill:#ff0000;fill-opacity:1;stroke:none;stroke-width:0.31698"
       x="76.689369"
       y="120.65999"
       id="text53"
       inkscape:export-filename="/home/obijuan/develop/digital-electronics-with-open-FPGAs-tutorial/wiki/Tutorial-30/intro-03.png"
       inkscape:export-xdpi="90"
       inkscape:export-ydpi="90"><tspan
         sodipodi:role="line"
         x="76.689369"
         y="120.65999"
         style="font-style:normal;font-variant:normal;font-weight:500;font-stretch:normal;font-family:ubuntu;-inkscape-font-specification:'ubuntu Medium';fill:#ff0000;stroke:none;stroke-width:0.31698"
         id="tspan52">Seal de datos</tspan><tspan
         sodipodi:role="line"
         x="76.689369"
         y="126.99959"
         style="font-style:normal;font-variant:normal;font-weight:500;font-stretch:normal;font-family:ubuntu;-inkscape-font-specification:'ubuntu Medium';fill:#ff0000;stroke:none;stroke-width:0.31698"
         id="tspan53">(Analgica)</tspan></text><text
       xml:space="preserve"
       style="font-style:normal;font-variant:normal;font-weight:normal;font-stretch:normal;font-size:5.07168px;line-height:1.25;font-family:ubuntu;-inkscape-font-specification:ubuntu;text-align:center;letter-spacing:0px;word-spacing:0px;text-anchor:middle;fill:#000000;fill-opacity:1;stroke:none;stroke-width:0.31698"
       x="-46.163219"
       y="125.4285"
       id="text54"
       inkscape:export-filename="/home/obijuan/develop/digital-electronics-with-open-FPGAs-tutorial/wiki/Tutorial-30/intro-03.png"
       inkscape:export-xdpi="90"
       inkscape:export-ydpi="90"><tspan
         sodipodi:role="line"
         x="-46.163219"
         y="125.4285"
         style="font-style:normal;font-variant:normal;font-weight:500;font-stretch:normal;font-family:ubuntu;-inkscape-font-specification:'ubuntu Medium';fill:#000000;stroke:none;stroke-width:0.31698"
         id="tspan54">Transmisor</tspan></text><path
       style="display:inline;fill:none;stroke:#0000ff;stroke-width:0.264583;stroke-linecap:square;stroke-linejoin:round;stroke-dasharray:none"
       d="m 131.43587,138.22361 h 6.20448 v 5.72791 h 6.16533 v -5.87632 h 11.9769 v 5.87632 h 5.96319 v -5.87632 h 6.11479 v 5.87632 h 12.1285"
       id="path54" /><text
       xml:space="preserve"
       style="font-style:normal;font-variant:normal;font-weight:normal;font-stretch:normal;font-size:5.07168px;line-height:1.25;font-family:ubuntu;-inkscape-font-specification:ubuntu;text-align:center;letter-spacing:0px;word-spacing:0px;text-anchor:middle;fill:#0000ff;fill-opacity:1;stroke:none;stroke-width:0.31698"
       x="155.18091"
       y="126.27434"
       id="text56"
       inkscape:export-filename="/home/obijuan/develop/digital-electronics-with-open-FPGAs-tutorial/wiki/Tutorial-30/intro-03.png"
       inkscape:export-xdpi="90"
       inkscape:export-ydpi="90"><tspan
         sodipodi:role="line"
         x="155.18091"
         y="126.27434"
         style="font-style:normal;font-variant:normal;font-weight:500;font-stretch:normal;font-family:ubuntu;-inkscape-font-specification:'ubuntu Medium';fill:#0000ff;stroke:none;stroke-width:0.31698"
         id="tspan55">Seal de datos</tspan><tspan
         sodipodi:role="line"
         x="155.18091"
         y="132.61394"
         style="font-style:normal;font-variant:normal;font-weight:500;font-stretch:normal;font-family:ubuntu;-inkscape-font-specification:'ubuntu Medium';fill:#0000ff;stroke:none;stroke-width:0.31698"
         id="tspan56">(Digital)</tspan></text><text
       xml:space="preserve"
       style="font-style:normal;font-variant:normal;font-weight:normal;font-stretch:normal;font-size:5.07168px;line-height:1.25;font-family:ubuntu;-inkscape-font-specification:ubuntu;text-align:center;letter-spacing:0px;word-spacing:0px;text-anchor:middle;fill:#000000;fill-opacity:1;stroke:none;stroke-width:0.31698"
       x="194.60762"
       y="125.4285"
       id="text57"
       inkscape:export-filename="/home/obijuan/develop/digital-electronics-with-open-FPGAs-tutorial/wiki/Tutorial-30/intro-03.png"
       inkscape:export-xdpi="90"
       inkscape:export-ydpi="90"><tspan
         sodipodi:role="line"
         x="194.60762"
         y="125.4285"
         style="font-style:normal;font-variant:normal;font-weight:500;font-stretch:normal;font-family:ubuntu;-inkscape-font-specification:'ubuntu Medium';fill:#000000;stroke:none;stroke-width:0.31698"
         id="tspan57">Receptor</tspan></text></g></svg>
