<?xml version="1.0" encoding="UTF-8" standalone="no"?>
<!-- Created with Inkscape (http://www.inkscape.org/) -->

<svg
   width="244.91876mm"
   height="114.74783mm"
   viewBox="0 0 244.91876 114.74783"
   version="1.1"
   id="svg1"
   xml:space="preserve"
   inkscape:version="1.4 (e7c3feb, 2024-10-09)"
   sodipodi:docname="teletipo-04-mensaje-anim.svg"
   xmlns:inkscape="http://www.inkscape.org/namespaces/inkscape"
   xmlns:sodipodi="http://sodipodi.sourceforge.net/DTD/sodipodi-0.dtd"
   xmlns="http://www.w3.org/2000/svg"
   xmlns:svg="http://www.w3.org/2000/svg"><sodipodi:namedview
     id="namedview1"
     pagecolor="#ffffff"
     bordercolor="#000000"
     borderopacity="0.25"
     inkscape:showpageshadow="2"
     inkscape:pageopacity="0.0"
     inkscape:pagecheckerboard="0"
     inkscape:deskcolor="#d1d1d1"
     inkscape:document-units="mm"
     inkscape:zoom="0.66994708"
     inkscape:cx="482.87396"
     inkscape:cy="290.32144"
     inkscape:window-width="1866"
     inkscape:window-height="1011"
     inkscape:window-x="0"
     inkscape:window-y="0"
     inkscape:window-maximized="1"
     inkscape:current-layer="layer18"
     showgrid="false"
     showguides="true" /><defs
     id="defs1" /><g
     inkscape:groupmode="layer"
     id="layer5"
     inkscape:label="Back"
     transform="matrix(1.2962851,0,0,1.105548,82.89726,-53.035442)"
     style="display:inline;stroke-width:0.94763"><rect
       style="display:inline;fill:#cccccc;stroke:none;stroke-width:1.29316;stroke-linejoin:round;stroke-dasharray:none"
       id="rect2"
       width="188.93896"
       height="103.79271"
       x="-63.949867"
       y="47.972084" /></g><g
     inkscape:groupmode="layer"
     id="layer4"
     inkscape:label="Back-2"
     style="display:none"><path
       id="rect13"
       style="display:inline;fill:#ffffff;stroke:#000000;stroke-width:0.79375;stroke-linejoin:round;stroke-dasharray:none"
       d="M 10.062435,32.421794 V 82.326239 H 231.32283 V 32.421794 Z m 8.628414,6.125724 a 3.3569195,3.3569195 0 0 1 3.356901,3.356901 3.3569195,3.3569195 0 0 1 -3.356901,3.356901 3.3569195,3.3569195 0 0 1 -3.356901,-3.356901 3.3569195,3.3569195 0 0 1 3.356901,-3.356901 z m 203.300771,0 a 3.3569195,3.3569195 0 0 1 3.3569,3.356901 3.3569195,3.3569195 0 0 1 -3.3569,3.356901 3.3569195,3.3569195 0 0 1 -3.35742,-3.356901 3.3569195,3.3569195 0 0 1 3.35742,-3.356901 z M 18.690849,48.96807 a 3.3569195,3.3569195 0 0 1 3.356901,3.356899 3.3569195,3.3569195 0 0 1 -3.356901,3.3569 3.3569195,3.3569195 0 0 1 -3.356901,-3.3569 3.3569195,3.3569195 0 0 1 3.356901,-3.356899 z m 203.300771,0 a 3.3569195,3.3569195 0 0 1 3.3569,3.356899 3.3569195,3.3569195 0 0 1 -3.3569,3.3569 3.3569195,3.3569195 0 0 1 -3.35742,-3.3569 3.3569195,3.3569195 0 0 1 3.35742,-3.356899 z M 18.690849,59.389139 a 3.3569195,3.3569195 0 0 1 3.356901,3.3569 3.3569195,3.3569195 0 0 1 -3.356901,3.3569 3.3569195,3.3569195 0 0 1 -3.356901,-3.3569 3.3569195,3.3569195 0 0 1 3.356901,-3.3569 z m 203.300771,0 a 3.3569195,3.3569195 0 0 1 3.3569,3.3569 3.3569195,3.3569195 0 0 1 -3.3569,3.3569 3.3569195,3.3569195 0 0 1 -3.35742,-3.3569 3.3569195,3.3569195 0 0 1 3.35742,-3.3569 z M 18.690849,69.809689 a 3.3569195,3.3569195 0 0 1 3.356901,3.35742 3.3569195,3.3569195 0 0 1 -3.356901,3.3569 3.3569195,3.3569195 0 0 1 -3.356901,-3.3569 3.3569195,3.3569195 0 0 1 3.356901,-3.35742 z m 203.300771,0 a 3.3569195,3.3569195 0 0 1 3.3569,3.35742 3.3569195,3.3569195 0 0 1 -3.3569,3.3569 3.3569195,3.3569195 0 0 1 -3.35742,-3.3569 3.3569195,3.3569195 0 0 1 3.35742,-3.35742 z" /></g><g
     inkscape:label="Fotograma-1"
     inkscape:groupmode="layer"
     id="layer1"
     transform="translate(75.261619,-47.959111)"
     style="display:none"
     sodipodi:insensitive="true"><path
       id="path13"
       style="fill:#808080;stroke:#000000;stroke-width:0.341;stroke-linejoin:round"
       d="m -32.443965,106.58958 v 28.82977 h 1.736296 17.495077 1.735948 v -28.82977 h -1.735948 v 21.5775 h -17.495077 v -21.5775 z" /></g><g
     inkscape:groupmode="layer"
     id="layer11"
     inkscape:label="Fotograma-2"
     style="display:none"
     transform="translate(0.55851612,0.27925986)"><path
       d="m 61.820553,74.449812 c 0,-1.15127 -0.90777,-1.15127 -1.51296,-1.15127 h -0.9456 v -18.16026 h 0.9456 c 0.56736,0 1.51296,0 1.51296,-1.11413 0,-1.15127 -0.90777,-1.15127 -1.51296,-1.15127 h -4.50105 c -0.56736,0 -1.51296,0 -1.51296,1.11413 0,1.15127 0.90777,1.15127 1.51296,1.15127 h 0.9456 v 7.50178 h -8.01869 v -7.50178 h 0.9456 c 0.56736,0 1.51296,0 1.51296,-1.11413 0,-1.15127 -0.90777,-1.15127 -1.51296,-1.15127 h -4.50105 c -0.60518,0 -1.51296,0 -1.51296,1.15127 0,1.11413 0.9456,1.11413 1.51296,1.11413 h 0.9456 v 18.16026 h -0.9456 c -0.60518,0 -1.51296,0 -1.51296,1.15127 0,1.11413 0.9456,1.11413 1.51296,1.11413 h 4.50105 c 0.56736,0 1.51296,0 1.51296,-1.11413 0,-1.15127 -0.90777,-1.15127 -1.51296,-1.15127 h -0.9456 v -8.39308 h 8.01869 v 8.39308 h -0.9456 c -0.56736,0 -1.51296,0 -1.51296,1.11413 0,1.15127 0.90777,1.15127 1.51296,1.15127 h 4.50105 c 0.56736,0 1.51296,0 1.51296,-1.11413 z"
       id="text10"
       style="font-size:37.4792px;line-height:0.9;font-family:'Latin Modern Mono';-inkscape-font-specification:'Latin Modern Mono';text-align:center;text-anchor:middle;display:inline;fill:#000080;stroke:#000000;stroke-width:0.341;stroke-linejoin:round"
       aria-label="H" /></g><g
     inkscape:groupmode="layer"
     id="layer6"
     inkscape:label="Fotograma-3"
     style="display:none"
     sodipodi:insensitive="true"><path
       id="path13-5"
       style="display:inline;fill:#808080;stroke:#000000;stroke-width:0.341;stroke-linejoin:round"
       d="m 62.67049,58.630468 v 28.82977 h 1.736296 17.495077 1.735948 v -28.82977 h -1.735948 v 21.5775 H 64.406786 v -21.5775 z" /></g><g
     inkscape:groupmode="layer"
     id="layer7"
     inkscape:label="Fotograma-4"
     style="display:none"><path
       style="font-size:37.4792px;line-height:0.9;font-family:'Latin Modern Mono';-inkscape-font-specification:'Latin Modern Mono';display:inline;fill:#000080;stroke:#000000;stroke-width:0.341;stroke-linejoin:round"
       d="m 80.950629,63.937221 c 0,-10.73274 -0.79431,-11.7726 -7.79174,-11.7726 -6.99744,0 -7.79174,1.00272 -7.79174,11.7726 0,10.73276 0.7943,11.73548 7.79174,11.73548 6.95961,0 7.79174,-1.00272 7.79174,-11.73548 z m -2.60986,-0.33423 c 0,2.30253 0,4.93929 -0.41606,6.94472 -0.41607,2.07971 -1.39949,2.8596 -4.76582,2.8596 -3.32852,0 -4.27411,-0.77989 -4.728,-2.63677 -0.45389,-1.89401 -0.45389,-5.12498 -0.45389,-7.16755 0,-2.30253 0,-4.82788 0.41606,-6.53621 0.49172,-2.19112 1.66426,-2.63677 4.76583,-2.63677 2.83679,0 4.16063,0.33424 4.72799,2.37681 0.45389,1.74546 0.45389,4.53078 0.45389,6.79617 z"
       id="text14"
       aria-label="HO"
       sodipodi:nodetypes="sssssscscscscs" /></g><g
     inkscape:groupmode="layer"
     id="layer8"
     inkscape:label="Fotograma-5"
     style="display:none"
     sodipodi:insensitive="true"><path
       id="path13-5-4"
       style="display:inline;fill:#808080;stroke:#000000;stroke-width:0.341;stroke-linejoin:round"
       d="m 82.410149,58.630468 v 28.82977 h 1.7363 17.495071 1.73595 v -28.82977 h -1.73595 v 21.5775 H 84.146449 v -21.5775 z" /></g><g
     inkscape:groupmode="layer"
     id="layer9"
     inkscape:label="Fotograma-6"
     style="display:none"><path
       style="font-size:37.4792px;line-height:0.9;font-family:'Latin Modern Mono';-inkscape-font-specification:'Latin Modern Mono';display:inline;fill:#000080;stroke:#000000;stroke-width:0.341;stroke-linejoin:round"
       d="m 101.56467,74.150034 v -3.30525 c 0,-0.74276 0,-1.52264 -1.28602,-1.52264 -1.323836,0 -1.323836,0.74275 -1.323836,1.52264 v 2.56249 h -9.115565 v -18.16027 h 2.118135 c 0.52953,0 1.55078,0 1.55078,-1.11412 0,-1.15127 -0.98342,-1.15127 -1.55078,-1.15127 h -6.127485 c -0.60518,0 -1.51295,0 -1.51295,1.15127 0,1.11412 0.94559,1.11412 1.51295,1.11412 h 1.39949 v 18.16027 h -1.39949 c -0.60518,0 -1.51295,0 -1.51295,1.15127 0,1.11412 0.94559,1.11412 1.51295,1.11412 h 14.221811 c 1.24819,0 1.51296,-0.33424 1.51296,-1.52263 z"
       id="text11"
       aria-label="HOL"
       sodipodi:nodetypes="sssscccssssssccsssss" /></g><g
     inkscape:groupmode="layer"
     id="layer10"
     inkscape:label="Fotograma-7"
     style="display:none"
     sodipodi:insensitive="true"><path
       id="path13-5-4-4"
       style="display:inline;fill:#808080;stroke:#000000;stroke-width:0.341;stroke-linejoin:round"
       d="m 102.42768,58.630468 v 28.82977 h 1.7363 17.49508 1.73595 v -28.82977 h -1.73595 v 21.5775 h -17.49508 v -21.5775 z" /></g><g
     inkscape:groupmode="layer"
     id="layer12"
     inkscape:label="Fotograma-8"
     style="display:none"><path
       d="m 121.76268,74.558504 c 0,-0.48279 -0.18912,-0.85416 -0.64301,-1.03985 -0.22695,-0.11142 -1.05907,-0.11142 -1.62643,-0.11142 l -4.5767,-19.42294 c -0.34042,-1.41123 -0.86996,-1.44835 -2.0425,-1.44835 -1.09689,0 -1.70208,0 -2.04249,1.41121 l -4.57671,19.46008 c -0.52953,0 -1.39948,0 -1.62643,0.0743 -0.41606,0.22283 -0.643,0.5942 -0.643,1.07699 0,1.11413 0.98342,1.11413 1.62643,1.11413 h 3.85804 c 0.68083,0 1.58861,0 1.58861,-1.11413 0,-1.15127 -0.75648,-1.15127 -2.11814,-1.15127 l 0.86995,-3.8623 h 6.12748 l 0.86995,3.8623 c -1.36166,0 -2.11814,0 -2.11814,1.15127 0,1.11413 0.90778,1.11413 1.58861,1.11413 h 3.85805 c 0.643,0 1.62643,0 1.62643,-1.11413 z m -6.39226,-7.27896 h -4.99276 l 2.49638,-11.66119 z"
       id="text16-8"
       style="font-size:37.4792px;line-height:0.9;font-family:'Latin Modern Mono';-inkscape-font-specification:'Latin Modern Mono';text-align:center;text-anchor:middle;display:inline;fill:#000080;stroke:#000000;stroke-width:0.341;stroke-linejoin:round"
       aria-label="HOLA"
       sodipodi:nodetypes="scccscccssssccccssssscccc" /></g><g
     inkscape:groupmode="layer"
     id="layer13"
     inkscape:label="Fotograma-9"
     style="display:none"><path
       id="path13-5-4-4-6"
       style="display:inline;fill:#808080;stroke:#000000;stroke-width:0.341;stroke-linejoin:round"
       d="m 122.76666,58.630468 v 28.82977 h 1.7363 17.49508 1.73595 v -28.82977 h -1.73595 v 21.5775 h -17.49508 v -21.5775 z" /></g><g
     inkscape:groupmode="layer"
     id="layer14"
     inkscape:label="Fotograma-10"
     style="display:inline;opacity:1"><path
       id="rect13-6"
       style="display:inline;fill:#ffffff;stroke:#000000;stroke-width:0.79375;stroke-linejoin:round;stroke-dasharray:none"
       d="M 10.062435,2.7853597 V 82.326241 H 231.32283 V 2.7853597 Z m 8.628414,6.1257243 c 1.853961,1.02e-5 3.356891,1.50294 3.356901,3.356901 -10e-6,1.853961 -1.50294,3.356891 -3.356901,3.356901 -1.853961,-10e-6 -3.356891,-1.50294 -3.356901,-3.356901 1e-5,-1.853961 1.50294,-3.3568908 3.356901,-3.356901 z m 203.300771,0 c 1.85396,1.08e-5 3.35689,1.50294 3.3569,3.356901 -1e-5,1.853961 -1.50294,3.35689 -3.3569,3.356901 -1.85416,2.76e-4 -3.35741,-1.502737 -3.35742,-3.356901 1e-5,-1.854164 1.50326,-3.3571774 3.35742,-3.356901 z M 18.690849,19.331637 c 1.85396,10e-6 3.35689,1.502941 3.356901,3.356901 -1.1e-5,1.853961 -1.50294,3.356891 -3.356901,3.356901 -1.853961,-10e-6 -3.35689,-1.50294 -3.356901,-3.356901 1.1e-5,-1.85396 1.502941,-3.356891 3.356901,-3.356901 z m 203.300771,0 c 1.85396,1.1e-5 3.35689,1.502941 3.3569,3.356901 -1e-5,1.85396 -1.50294,3.35689 -3.3569,3.356901 -1.85416,2.76e-4 -3.35741,-1.502738 -3.35742,-3.356901 1e-5,-1.854163 1.50326,-3.357177 3.35742,-3.356901 z M 18.690849,29.752706 c 1.853961,10e-6 3.35689,1.50294 3.356901,3.356901 -1.1e-5,1.853961 -1.50294,3.356891 -3.356901,3.356901 -1.853961,-10e-6 -3.35689,-1.50294 -3.356901,-3.356901 1.1e-5,-1.853961 1.50294,-3.356891 3.356901,-3.356901 z m 203.300771,0 c 1.85396,1.1e-5 3.35689,1.502941 3.3569,3.356901 -1e-5,1.85396 -1.50294,3.35689 -3.3569,3.356901 -1.85416,2.76e-4 -3.35741,-1.502738 -3.35742,-3.356901 1e-5,-1.854163 1.50326,-3.357177 3.35742,-3.356901 z M 18.690849,40.173258 c 1.854164,1e-5 3.357177,1.503254 3.356901,3.357418 -1.1e-5,1.853961 -1.50294,3.356891 -3.356901,3.356901 -1.853961,-1e-5 -3.35689,-1.50294 -3.356901,-3.356901 -2.76e-4,-1.854164 1.502737,-3.357408 3.356901,-3.357418 z m 203.300771,0 c 1.85416,1.1e-5 3.35718,1.503255 3.3569,3.357418 -1e-5,1.85396 -1.50294,3.35689 -3.3569,3.356901 -1.85416,2.76e-4 -3.35741,-1.502738 -3.35742,-3.356901 -2.8e-4,-1.854366 1.50305,-3.357694 3.35742,-3.357418 z M 18.690849,50.691479 a 3.3569195,3.3569195 0 0 1 3.356901,3.356902 3.3569195,3.3569195 0 0 1 -3.356901,3.356901 3.3569195,3.3569195 0 0 1 -3.356901,-3.356901 3.3569195,3.3569195 0 0 1 3.356901,-3.356902 z m 203.300771,0 a 3.3569195,3.3569195 0 0 1 3.3569,3.356902 3.3569195,3.3569195 0 0 1 -3.3569,3.356901 3.3569195,3.3569195 0 0 1 -3.3569,-3.356901 3.3569195,3.3569195 0 0 1 3.3569,-3.356902 z M 18.690849,61.112549 a 3.3569195,3.3569195 0 0 1 3.356901,3.356901 3.3569195,3.3569195 0 0 1 -3.356901,3.356901 3.3569195,3.3569195 0 0 1 -3.356901,-3.356901 3.3569195,3.3569195 0 0 1 3.356901,-3.356901 z m 203.300771,0 a 3.3569195,3.3569195 0 0 1 3.3569,3.356901 3.3569195,3.3569195 0 0 1 -3.3569,3.356901 3.3569195,3.3569195 0 0 1 -3.3569,-3.356901 3.3569195,3.3569195 0 0 1 3.3569,-3.356901 z M 18.690849,71.533618 a 3.3569195,3.3569195 0 0 1 3.356901,3.356901 3.3569195,3.3569195 0 0 1 -3.356901,3.356901 3.3569195,3.3569195 0 0 1 -3.356901,-3.356901 3.3569195,3.3569195 0 0 1 3.356901,-3.356901 z m 203.300771,0 a 3.3569195,3.3569195 0 0 1 3.3569,3.356901 3.3569195,3.3569195 0 0 1 -3.3569,3.356901 3.3569195,3.3569195 0 0 1 -3.3569,-3.356901 3.3569195,3.3569195 0 0 1 3.3569,-3.356901 z" /><path
       d="m 62.379069,45.092877 c 0,-1.151269 -0.90777,-1.151269 -1.51296,-1.151269 h -0.9456 V 25.781347 h 0.9456 c 0.56736,0 1.51296,0 1.51296,-1.11413 0,-1.15127 -0.90777,-1.15127 -1.51296,-1.15127 h -4.50105 c -0.56736,0 -1.51296,0 -1.51296,1.11413 0,1.15127 0.90777,1.15127 1.51296,1.15127 h 0.9456 v 7.50178 h -8.01869 v -7.501779 h 0.9456 c 0.56736,0 1.51296,0 1.51296,-1.114131 0,-1.151269 -0.90777,-1.151269 -1.51296,-1.151269 h -4.50105 c -0.60518,0 -1.51296,0 -1.51296,1.151269 0,1.114131 0.9456,1.114131 1.51296,1.114131 h 0.9456 v 18.16026 h -0.9456 c -0.60518,0 -1.51296,0 -1.51296,1.151269 0,1.114131 0.9456,1.114131 1.51296,1.114131 h 4.50105 c 0.56736,0 1.51296,0 1.51296,-1.114131 0,-1.151269 -0.90777,-1.151269 -1.51296,-1.151269 h -0.9456 v -8.39308 h 8.01869 v 8.39308 h -0.9456 c -0.56736,0 -1.51296,0 -1.51296,1.11413 0,1.15127 0.90777,1.15127 1.51296,1.15127 h 4.50105 c 0.56736,0 1.51296,0 1.51296,-1.114131 z"
       id="text10-0"
       style="font-size:37.4792px;line-height:0.9;font-family:'Latin Modern Mono';-inkscape-font-specification:'Latin Modern Mono';text-align:center;text-anchor:middle;display:inline;fill:#000080;stroke:#000000;stroke-width:0.341;stroke-linejoin:round"
       aria-label="H" /><path
       style="font-size:37.4792px;line-height:0.9;font-family:'Latin Modern Mono';-inkscape-font-specification:'Latin Modern Mono';display:inline;fill:#000080;stroke:#000000;stroke-width:0.341;stroke-linejoin:round"
       d="m 80.950629,34.301026 c 0,-10.73274 -0.79431,-11.7726 -7.79174,-11.7726 -6.99744,0 -7.79174,1.00272 -7.79174,11.7726 0,10.73276 0.7943,11.73548 7.79174,11.73548 6.95961,0 7.79174,-1.00272 7.79174,-11.73548 z m -2.60986,-0.33423 c 0,2.30253 0,4.93929 -0.41606,6.94472 -0.41607,2.07971 -1.39949,2.8596 -4.76582,2.8596 -3.32852,0 -4.27411,-0.77989 -4.728,-2.63677 -0.45389,-1.89401 -0.45389,-5.12498 -0.45389,-7.16755 0,-2.30253 0,-4.82788 0.41606,-6.53621 0.49172,-2.19112 1.66426,-2.63677 4.76583,-2.63677 2.83679,0 4.16063,0.33424 4.72799,2.37681 0.45389,1.74546 0.45389,4.53078 0.45389,6.79617 z"
       id="text14-6"
       aria-label="HO"
       sodipodi:nodetypes="sssssscscscscs" /><path
       style="font-size:37.4792px;line-height:0.9;font-family:'Latin Modern Mono';-inkscape-font-specification:'Latin Modern Mono';display:inline;fill:#000080;stroke:#000000;stroke-width:0.341;stroke-linejoin:round"
       d="m 101.56467,44.513839 v -3.30525 c 0,-0.74276 0,-1.52264 -1.28602,-1.52264 -1.323836,0 -1.323836,0.74275 -1.323836,1.52264 v 2.56249 h -9.115565 v -18.16027 h 2.118135 c 0.52953,0 1.55078,0 1.55078,-1.11412 0,-1.15127 -0.98342,-1.15127 -1.55078,-1.15127 h -6.127485 c -0.60518,0 -1.51295,0 -1.51295,1.15127 0,1.11412 0.94559,1.11412 1.51295,1.11412 h 1.39949 v 18.16027 h -1.39949 c -0.60518,0 -1.51295,0 -1.51295,1.15127 0,1.11412 0.94559,1.11412 1.51295,1.11412 h 14.221811 c 1.24819,0 1.51296,-0.33424 1.51296,-1.52263 z"
       id="text11-1"
       aria-label="HOL"
       sodipodi:nodetypes="sssscccssssssccsssss" /><path
       d="m 121.76268,44.922309 c 0,-0.48279 -0.18912,-0.85416 -0.64301,-1.03985 -0.22695,-0.11142 -1.05907,-0.11142 -1.62643,-0.11142 l -4.5767,-19.42294 c -0.34042,-1.41123 -0.86996,-1.44835 -2.0425,-1.44835 -1.09689,0 -1.70208,0 -2.04249,1.41121 l -4.57671,19.46008 c -0.52953,0 -1.39948,0 -1.62643,0.0743 -0.41606,0.22283 -0.643,0.5942 -0.643,1.07699 0,1.11413 0.98342,1.11413 1.62643,1.11413 h 3.85804 c 0.68083,0 1.58861,0 1.58861,-1.11413 0,-1.15127 -0.75648,-1.15127 -2.11814,-1.15127 l 0.86995,-3.8623 h 6.12748 l 0.86995,3.8623 c -1.36166,0 -2.11814,0 -2.11814,1.15127 0,1.11413 0.90778,1.11413 1.58861,1.11413 h 3.85805 c 0.643,0 1.62643,0 1.62643,-1.11413 z m -6.39226,-7.27896 h -4.99276 l 2.49638,-11.66119 z"
       id="text16-8-5"
       style="font-size:37.4792px;line-height:0.9;font-family:'Latin Modern Mono';-inkscape-font-specification:'Latin Modern Mono';text-align:center;text-anchor:middle;display:inline;fill:#000080;stroke:#000000;stroke-width:0.341;stroke-linejoin:round"
       aria-label="HOLA"
       sodipodi:nodetypes="scccscccssssccccssssscccc" /></g><g
     inkscape:groupmode="layer"
     id="layer21"
     inkscape:label="Fotograma-17"
     style="display:none"><path
       id="path13-2"
       style="display:inline;fill:#808080;stroke:#000000;stroke-width:0.341;stroke-linejoin:round"
       d="m 42.817653,58.630468 v 28.82977 h 1.736296 17.495077 1.735948 v -28.82977 h -1.735948 v 21.5775 H 44.553949 v -21.5775 z" /></g><g
     inkscape:groupmode="layer"
     id="layer15"
     inkscape:label="Fotograma-11"
     style="display:inline"><path
       style="font-size:37.9903px;line-height:0.9;font-family:'Latin Modern Mono';-inkscape-font-specification:'Latin Modern Mono';fill:#000080;stroke:#000000;stroke-width:0.529167;stroke-linecap:square;stroke-linejoin:round"
       d="m 61.98448,56.867851 v -2.773292 c 0,-1.177699 -0.227941,-1.557602 -1.519612,-1.557602 H 45.610661 c -1.253679,0 -1.557602,0.303922 -1.557602,1.557602 v 2.773292 c 0,0.721816 0,1.557602 1.29167,1.557602 1.329661,0 1.329661,-0.797796 1.329661,-1.557602 v -2.013486 h 5.05271 v 18.577256 h -1.975496 c -0.569854,0 -1.519612,0 -1.519612,1.139709 0,1.177699 0.911767,1.177699 1.519612,1.177699 h 6.572322 c 0.569854,0 1.519612,0 1.519612,-1.139708 0,-1.1777 -0.911767,-1.1777 -1.519612,-1.1777 H 54.34843 V 54.854365 h 5.01472 v 2.013486 c 0,0.721816 0,1.557602 1.29167,1.557602 1.32966,0 1.32966,-0.797796 1.32966,-1.557602 z"
       id="path25" /></g><g
     inkscape:groupmode="layer"
     id="layer16"
     inkscape:label="Fotograma-12"
     style="display:none"><path
       id="path13-2-7-9"
       style="display:inline;fill:#808080;stroke:#000000;stroke-width:0.341;stroke-linejoin:round"
       d="m 62.480016,58.630468 v 28.82977 h 1.736296 17.495077 1.735948 v -28.82977 h -1.735948 v 21.5775 H 64.216312 v -21.5775 z" /></g><g
     inkscape:groupmode="layer"
     id="layer17"
     inkscape:label="Fotograma-13"
     style="display:inline"><path
       style="font-size:37.9903px;line-height:0.9;font-family:'Latin Modern Mono';-inkscape-font-specification:'Latin Modern Mono';display:inline;fill:#000080;stroke:#000000;stroke-width:0.529167;stroke-linecap:square;stroke-linejoin:round"
       d="M 81.929373,56.962022 V 54.18873 c 0,-1.177699 -0.227941,-1.557602 -1.519612,-1.557602 H 65.555554 c -1.25368,0 -1.557602,0.303922 -1.557602,1.557602 v 2.773292 c 0,0.721816 0,1.557602 1.29167,1.557602 1.329661,0 1.329661,-0.797796 1.329661,-1.557602 v -2.013486 h 5.05271 v 18.577257 h -1.975496 c -0.569855,0 -1.519612,0 -1.519612,1.139709 0,1.177699 0.911767,1.177699 1.519612,1.177699 h 6.572322 c 0.569854,0 1.519612,0 1.519612,-1.139709 0,-1.177699 -0.911767,-1.177699 -1.519612,-1.177699 H 74.293323 V 54.948536 h 5.01472 v 2.013486 c 0,0.721816 0,1.557602 1.29167,1.557602 1.32966,0 1.32966,-0.797796 1.32966,-1.557602 z"
       id="path23-4" /></g><g
     inkscape:groupmode="layer"
     id="layer18"
     inkscape:label="Fotograma-14"
     style="display:none"><path
       id="path13-2-7-9-0"
       style="display:inline;fill:#808080;stroke:#000000;stroke-width:0.341;stroke-linejoin:round"
       d="m 81.940617,58.630468 v 28.82977 h 1.736296 17.495077 1.73595 v -28.82977 h -1.73595 v 21.5775 H 83.676913 v -21.5775 z" /></g><g
     inkscape:groupmode="layer"
     id="layer19"
     inkscape:label="Fotograma-15"
     style="display:inline"><path
       style="font-size:37.9903px;line-height:0.9;font-family:'Latin Modern Mono';-inkscape-font-specification:'Latin Modern Mono';display:inline;fill:#000080;stroke:#000000;stroke-width:0.529167;stroke-linecap:square;stroke-linejoin:round"
       d="m 102.1402,53.808893 c 0,-1.177699 -0.91177,-1.177699 -1.51961,-1.177699 h -3.950995 c -0.569854,0 -1.519612,0 -1.519612,1.139709 0,1.177699 0.835787,1.177699 1.747554,1.177699 l -3.988981,8.965711 c -0.531865,-1.937505 -3.609079,-8.167914 -3.988982,-8.965711 0.911767,0 1.747554,0 1.747554,-1.177699 0,-1.139709 -0.949758,-1.139709 -1.519612,-1.139709 h -3.950991 c -0.569855,0 -1.519612,0 -1.519612,1.139709 0,1.177699 0.911767,1.177699 1.519612,1.177699 h 0.797796 l 5.622564,11.625032 v 6.952225 h -0.949757 c -0.569855,0 -1.519612,0 -1.519612,1.139709 0,1.177699 0.911767,1.177699 1.519612,1.177699 h 4.520846 c 0.569854,0 1.519612,0 1.519612,-1.139709 0,-1.177699 -0.911768,-1.177699 -1.519612,-1.177699 H 94.238216 V 66.573634 L 99.82279,54.948602 h 0.7978 c 0.56985,0 1.51961,0 1.51961,-1.139709 z"
       id="path24-1" /></g><g
     inkscape:groupmode="layer"
     id="layer20"
     inkscape:label="Fotograma-16"
     style="display:inline"><path
       id="path13-2-7-9-0-7"
       style="display:inline;fill:#808080;stroke:#000000;stroke-width:0.341;stroke-linejoin:round"
       d="m 102.39038,58.630468 v 28.82977 h 1.7363 17.49508 1.73595 v -28.82977 h -1.73595 v 21.5775 h -17.49508 v -21.5775 z" /></g></svg>
